<?xml version="1.0" standalone="no"?>
<!DOCTYPE svg PUBLIC "-//W3C//DTD SVG 1.1//EN" "http://www.w3.org/Graphics/SVG/1.1/DTD/svg11.dtd" >
<svg xmlns="http://www.w3.org/2000/svg" xmlns:xlink="http://www.w3.org/1999/xlink" version="1.1">
<metadata>
Created by FontForge 20201107 at Wed Mar 19 13:54:24 2008
 By 
(c) Jeremy Dooley / Insigne Graphics.  || SWF-eXtract by uazero.
</metadata>
<defs>
<font id="Terfens-Bold" horiz-adv-x="744" >
  <font-face 
    font-family="Terfens"
    font-weight="700"
    font-stretch="normal"
    units-per-em="1000"
    panose-1="2 11 6 0 5 3 2 2 2 4"
    ascent="800"
    descent="-200"
    x-height="614"
    cap-height="748"
    bbox="-134 -307.133 1265 982"
    underline-thickness="0"
    underline-position="-381"
    unicode-range="U+0020-2122"
  />
<missing-glyph horiz-adv-x="256" 
 />
    <glyph glyph-name=".notdef" horiz-adv-x="256" 
 />
    <glyph glyph-name=".null" horiz-adv-x="0" 
 />
    <glyph glyph-name="nonmarkingreturn" horiz-adv-x="333" 
 />
    <glyph glyph-name="space" unicode=" " horiz-adv-x="256" 
d="M0 1v-1v1z" />
    <glyph glyph-name="exclam" unicode="!" horiz-adv-x="368" 
d="M248 424l-7 -117q-4 -40 -9 -58q-4 -19 -11 -32q-5 -11 -16 -14q-11 -4 -26 -3q-13 -1 -26 3q-12 4 -15 14l-6 134l-4 123l-2 88l-4 106l-1 13v11q-5 29 8 42q12 13 66 12q40 2 51 -22q11 -25 10 -94zM112 56v-1v0q1 32 23 51q23 19 51 20q25 0 44 -16t20 -51
q-2 -30 -25 -48q-23 -19 -51 -19q-25 0 -43 15t-19 48v1z" />
    <glyph glyph-name="quotedbl" unicode="&#x22;" horiz-adv-x="471" 
d="M374 761v-203l-26 -56h-89v259h115zM97 762v-1v0h114v-205l-25 -54h-89v259v1z" />
    <glyph glyph-name="numbersign" unicode="#" horiz-adv-x="646" 
d="M469 453l-30 -163h106q17 -2 23 -16q6 -15 5 -21q2 -21 -18 -27t-77 -6h-52l-39 -218q-1 -4 -11 -6l-24 -3q-32 0 -45 7q-13 8 -13 28l1 21l5 31l26 140h-59l-39 -218q-1 -4 -10 -6l-23 -3q-33 0 -46 7q-13 8 -13 28l2 21l3 31l26 140h-102q-18 2 -24 17q-7 15 -6 21
q-1 20 19 26t76 6h50l30 163h-109q-16 1 -22 16q-7 14 -6 20q-2 21 18 28q20 6 76 5h55l39 207q3 4 12 6l22 2q32 1 46 -6q13 -7 12 -27l-1 -22l-5 -32l-23 -128h57l38 207q3 4 12 6l22 2q33 1 46 -6t12 -27l-1 -22l-4 -32l-25 -128h101q17 -2 23 -16q7 -15 6 -22
q2 -20 -19 -26q-20 -6 -77 -5h-46zM310 454v-1v0l-29 -163h57l31 163h-59v1z" />
    <glyph glyph-name="dollar" unicode="$" horiz-adv-x="573" 
d="M388 171v-1v0q-1 38 -25 68q-25 29 -59 52l-66 41l-71 41q-33 21 -55 44q-32 32 -52 69q-19 37 -20 81q2 64 55 112q52 47 130 63v108q1 7 13 11l26 6l20 1q34 2 43 -22q10 -25 9 -94v-7q36 -3 66 -13q29 -10 57 -26l16 -15q6 -8 6 -14q-1 -20 -18 -38q-18 -17 -40 -18
h-12q-6 1 -7 4l-26 12l-14 7l-44 13l-40 6q-37 -1 -70 -22q-33 -22 -35 -62q0 -29 9 -50q8 -22 24 -37q30 -31 63 -55l68 -45l77 -51q43 -30 74 -68q32 -38 33 -87q-2 -70 -54 -119q-52 -48 -133 -68q-1 -58 -12 -92q-10 -34 -40 -35l-20 1l-26 6q-12 4 -13 11v99
q-59 2 -98 13q-38 11 -70 30l-16 13q-6 7 -6 14q1 21 18 38q17 18 40 19l12 -1l9 -3q31 -18 65 -30q34 -11 69 -11q26 -1 58 10t57 33q24 22 25 57v1z" />
    <glyph glyph-name="percent" unicode="%" horiz-adv-x="885" 
d="M662 371q76 -2 131 -52q54 -49 57 -134q-1 -84 -51 -134q-49 -50 -137 -51q-89 1 -138 51q-50 50 -51 134q3 85 57 134q55 50 132 52zM725 185q-1 53 -19 79q-19 25 -44 25q-26 0 -45 -25q-18 -26 -19 -79q1 -54 19 -79q19 -24 45 -24q25 0 44 24q18 25 19 79zM223 746
q78 -1 132 -51q54 -49 57 -134q-1 -84 -51 -134q-49 -50 -138 -51q-88 1 -138 51q-49 50 -50 134q2 85 57 134q54 50 131 51zM589 724q6 10 18 14l26 3l25 -3q16 -3 30 -10q13 -7 13 -18q0 -10 -8 -26l-17 -27l-8 -9l3 1l-389 -639q-8 -10 -25 -13l-32 -4q-26 0 -41 7
q-16 7 -16 18q2 11 12 31l21 36zM287 562v-1v0q-1 53 -19 78q-19 26 -45 26q-25 0 -44 -26q-18 -25 -19 -78q1 -54 19 -79q19 -25 44 -24q26 -1 45 24q18 25 19 79v1z" />
    <glyph glyph-name="ampersand" unicode="&#x26;" horiz-adv-x="748" 
d="M535 92q-45 -48 -103 -78q-59 -29 -128 -30q-81 1 -138 31q-58 31 -89 81t-31 109q1 66 54 127q52 61 142 118q-38 38 -64 81t-27 89q1 80 55 124t138 44q79 0 135 -42t59 -118q-1 -41 -23 -75q-21 -34 -54 -63t-68 -54l74 -91l75 -91l8 11l9 13l32 39q17 17 36 18l20 -7
l31 -18q15 -12 16 -25l-15 -26l-33 -47l-33 -43l48 -58l49 -60h-1l15 -21q6 -10 6 -17q1 -11 -15 -18t-56 -7q-26 0 -42 10t-28 27zM303 372q-49 -30 -88 -70q-39 -39 -41 -95q1 -55 37 -95q35 -40 89 -42q46 1 88 32q43 30 80 69zM271 632v-1v0q1 -33 18 -63t40 -56
q50 38 70 62t19 55q-1 41 -22 62q-21 22 -54 22q-30 -1 -50 -23t-21 -59v1z" />
    <glyph glyph-name="quotesingle" unicode="'" horiz-adv-x="314" 
d="M119 762v-1v0h94v-251h-112v201l18 50v1z" />
    <glyph glyph-name="parenleft" unicode="(" horiz-adv-x="295" 
d="M214 783v-1v0q24 23 32 18t20 -22q12 -12 13 -19q2 -8 -5 -18q-55 -82 -77 -190t-21 -234q-1 -125 21 -233t77 -190q6 -10 5 -16q0 -7 -4 -12q-14 -26 -26 -31t-35 17q-52 50 -89 127t-57 166q-20 88 -20 172q0 86 20 174q19 89 56 165t90 126v1z" />
    <glyph glyph-name="parenright" unicode=")" horiz-adv-x="295" 
d="M81 783v-1v0q53 -50 90 -126t56 -165q20 -88 20 -174q0 -84 -20 -172q-20 -89 -57 -166t-89 -127q-23 -22 -35 -17t-26 31l-5 12q0 6 6 16q55 82 77 190t21 233q1 126 -21 234t-77 190q-7 10 -6 18q2 7 14 19q12 17 20 22t32 -18v1z" />
    <glyph glyph-name="asterisk" unicode="*" horiz-adv-x="563" 
d="M335 715v-1v0l-6 -36l-1 -40v-26l45 18q25 10 38 19q18 13 28 13q11 1 19 -21l16 -47q4 -12 -2 -15l-23 -5l-50 -11l-54 -16l33 -44q17 -22 35 -39q11 -10 12 -17q2 -7 -14 -19l-29 -22q-25 -17 -36 -15t-16 13l-9 21l-18 33l-21 32l-21 -32l-18 -33l-10 -21
q-4 -11 -16 -13q-11 -2 -36 15l-28 22q-17 12 -15 19q1 7 13 17l34 39l33 44l-54 16l-49 11l-24 5q-6 3 -2 15l16 47q9 22 19 21q11 0 29 -13q13 -9 38 -19l45 -18v26l-2 40l-6 36q-4 13 2 20q5 7 32 7h39q27 0 33 -7q5 -7 1 -20v1z" />
    <glyph glyph-name="plus" unicode="+" horiz-adv-x="628" 
d="M259 118v-1v0v118h-180q-17 2 -24 18l-6 24q-1 25 21 32q23 6 87 5h102v195q1 6 13 9l26 4l20 1q34 2 43 -17q10 -19 9 -75v-117h179q17 -2 23 -18q7 -17 6 -25q2 -24 -20 -31q-23 -6 -87 -5h-101v-196q-1 -6 -13 -9l-26 -4l-20 -1q-34 -2 -43 17q-10 19 -9 75v1z" />
    <glyph glyph-name="comma" unicode="," horiz-adv-x="259" 
d="M43 56v-1v0q1 25 21 46q20 22 54 23q25 0 44 -16q18 -16 19 -51q0 -24 -16 -56q-15 -31 -40 -55q-24 -25 -51 -26q-11 0 -20 5q-10 5 -7 14h-1l7 28l2 21l-1 16l-3 11l-5 19l-3 21v1z" />
    <glyph glyph-name="hyphen" unicode="-" horiz-adv-x="389" 
d="M237 262v-1v0h-161q-18 2 -25 19l-6 24q-1 24 21 31q23 6 87 5h161q18 -2 24 -18l6 -25q2 -24 -21 -30q-23 -7 -86 -6v1z" />
    <glyph glyph-name="period" unicode="." horiz-adv-x="323" 
d="M92 54v-1v0q1 32 24 51q22 19 51 20q25 0 44 -16q18 -16 19 -51q-1 -30 -24 -48q-24 -19 -51 -19q-26 0 -44 15t-19 48v1z" />
    <glyph glyph-name="slash" unicode="/" horiz-adv-x="416" 
d="M23 48v-1v0l272 700q8 14 24 19q15 5 30 5q20 0 40 -5t22 -20l-5 -24l-8 -21l-277 -714q-8 -15 -30 -20l-36 -5q-23 0 -36 4q-14 5 -14 20l6 31l12 30v1z" />
    <glyph glyph-name="zero" unicode="0" horiz-adv-x="635" 
d="M317 -13q-138 1 -209 103q-72 101 -72 287q1 180 74 279q74 99 211 101q139 -3 209 -105q69 -103 69 -279q-1 -187 -74 -286t-208 -100zM465 378v-1v0q0 152 -36 225t-108 73q-76 0 -114 -75q-37 -74 -37 -224q0 -158 37 -233q36 -75 108 -74q76 -1 113 76t37 232v1z" />
    <glyph glyph-name="one" unicode="1" horiz-adv-x="516" 
d="M219 105v-1v0v500l-28 -24q-13 -13 -29 -22q-16 -10 -35 -10q-18 0 -27 7q-10 8 -10 27v20q0 12 6 22t20 21l85 70q16 14 36 22q20 9 51 9q39 2 50 -22q11 -25 10 -94v-624q-1 -7 -15 -11l-31 -6l-22 -1q-40 -2 -51 22q-11 25 -10 94v1z" />
    <glyph glyph-name="two" unicode="2" horiz-adv-x="578" 
d="M98 1v-1v0q-18 1 -36 21q-19 19 -20 40l3 10l8 11l260 287q38 40 58 85q21 44 21 96q0 63 -24 89t-68 26q-33 -1 -66 -13l-68 -28q-13 -6 -33 -6q-22 1 -40 19q-18 19 -19 36l3 6l11 10q41 28 97 43q56 14 113 14q99 2 160 -41t63 -154q-2 -75 -46 -143q-43 -69 -96 -124
l-185 -200h291l22 -3q10 -2 11 -10q-6 -44 -19 -58t-57 -13h-344v1z" />
    <glyph glyph-name="three" unicode="3" horiz-adv-x="593" 
d="M218 427v-1v0h58q60 1 89 34q29 34 29 92q-1 62 -34 89q-34 26 -80 26q-25 -1 -53 -11l-51 -22l-30 -13q-14 -5 -29 -6q-23 2 -42 18q-18 17 -19 34q0 4 14 16q40 28 96 45t119 17q62 1 116 -19q54 -19 88 -60t35 -107q0 -58 -30 -103q-31 -45 -92 -68q26 -10 58 -33
q33 -23 56 -61q24 -38 26 -93q-2 -77 -41 -124q-40 -47 -104 -68q-63 -22 -135 -21q-64 0 -117 14t-95 43q-14 11 -14 16q1 17 18 36q18 18 41 20q17 0 28 -5l22 -12l15 -7l19 -8l39 -11l40 -4q60 -1 106 30q46 32 49 104q-1 66 -36 104q-36 37 -104 38q-54 0 -70 10
q-16 9 -15 27l6 25q7 16 24 18v1z" />
    <glyph glyph-name="four" unicode="4" horiz-adv-x="632" 
d="M597 205q1 -23 -20 -31q-22 -8 -81 -7v-39q1 -86 -8 -114t-51 -26l-22 1l-30 5q-13 4 -14 11v162h-285q-12 1 -25 15t-20 32q-6 19 2 32l334 470q8 15 24 25q16 11 63 12q25 -1 29 -5q4 -5 3 -13v-486h70q18 -2 25 -19zM371 250v-1v0v284l-204 -284h204v1z" />
    <glyph glyph-name="five" unicode="5" horiz-adv-x="620" 
d="M434 653v-1v0h-181l-9 -83l-8 -83q18 7 40 9l47 3q111 -2 176 -70t66 -181q-1 -120 -74 -189t-206 -70q-65 0 -118 14t-94 43q-14 11 -15 16q1 17 19 36q18 18 41 20q16 0 27 -5l23 -12l15 -7l18 -8l40 -12l46 -3q75 0 114 46q38 47 38 129q0 81 -40 127t-110 47
q-35 0 -64 -13q-30 -13 -60 -42q-25 -19 -43 -21t-19 26l32 327q4 28 23 34q20 5 48 4h305q18 -2 25 -19l6 -25q1 -24 -21 -31q-23 -7 -87 -7v1z" />
    <glyph glyph-name="six" unicode="6" horiz-adv-x="614" 
d="M570 230q-1 -108 -72 -174q-70 -66 -187 -68q-129 2 -197 76q-69 74 -70 197q1 90 48 183q47 92 131 170t196 124q16 8 30 9q15 1 27 -17l18 -27q4 -5 2 -11q-1 -6 -20 -16q-75 -38 -139 -91q-63 -53 -114 -143q26 10 55 15t52 5q110 -2 174 -64q65 -62 66 -168zM437 224
v-1v0q0 72 -33 116q-32 45 -91 46q-53 0 -92 -38q-40 -37 -42 -116q0 -74 33 -117q32 -44 98 -44q60 1 93 43q34 41 34 110v1z" />
    <glyph glyph-name="seven" unicode="7" horiz-adv-x="631" 
d="M427 653v-1v0h-276q-67 -1 -90 5q-24 6 -22 31l6 27q6 17 24 19h436q16 -2 36 -28t22 -51v-3l-3 -7l-309 -608q-14 -23 -43 -36q-30 -13 -57 -13q-20 0 -32 5q-12 6 -13 16l2 6l5 10l314 627v1z" />
    <glyph glyph-name="eight" unicode="8" horiz-adv-x="617" 
d="M52 205q1 54 31 101q31 47 83 79q-40 30 -63 70q-23 41 -23 88q2 86 67 144q65 57 162 59q97 -2 162 -59q64 -58 67 -144q-1 -47 -24 -88q-24 -40 -63 -70q52 -33 83 -79q31 -47 31 -101q-1 -61 -35 -110t-92 -78q-57 -29 -129 -29t-130 29t-92 78t-35 110zM185 205
q2 -58 37 -96t88 -39q53 1 89 39q35 38 36 96q-1 57 -36 95q-36 38 -89 40q-53 -2 -88 -40t-37 -95zM202 544v-1v0q1 -52 31 -86q31 -34 76 -35q46 1 76 35q31 34 32 86q-1 52 -32 86q-30 34 -76 36q-45 -2 -76 -36q-30 -34 -31 -86v1z" />
    <glyph glyph-name="nine" unicode="9" horiz-adv-x="614" 
d="M44 504q2 108 72 175q70 66 188 67q128 -1 197 -76q69 -74 69 -197q-1 -90 -47 -182q-47 -92 -130 -170q-83 -77 -192 -123q-20 -9 -35 -10q-16 -1 -28 16l-16 27q-5 6 -3 11q1 6 18 16q77 39 141 91q63 53 113 142q-26 -11 -53 -15l-53 -4q-110 2 -175 64
q-64 63 -66 168zM178 512v-1v0q1 -71 33 -116t91 -46q54 0 93 38t41 116q0 74 -33 118q-33 43 -98 44q-60 -2 -93 -43q-33 -42 -34 -111v1z" />
    <glyph glyph-name="colon" unicode=":" horiz-adv-x="323" 
d="M92 53q1 32 24 51q22 19 51 20q25 0 44 -16q18 -16 19 -51q-1 -30 -24 -48q-24 -19 -51 -19q-26 0 -44 15t-19 48zM92 543v-1v0q1 32 24 51q22 19 51 19q25 1 44 -15q18 -16 19 -51q-1 -31 -24 -49q-24 -18 -51 -19q-26 0 -44 15t-19 49v1z" />
    <glyph glyph-name="semicolon" unicode=";" horiz-adv-x="261" 
d="M43 55q1 25 21 46q20 22 54 23q25 0 44 -16q18 -16 19 -51q0 -24 -16 -56q-15 -31 -40 -55q-24 -25 -51 -26q-11 0 -20 5t-7 14l7 27l1 22l-1 16l-3 11l-5 19zM45 544v-1v0q1 32 24 51t51 19q25 1 44 -15q18 -16 19 -51q-1 -31 -24 -49t-51 -19q-25 0 -44 15
q-18 15 -19 49v1z" />
    <glyph glyph-name="less" unicode="&#x3c;" horiz-adv-x="608" 
d="M167 274v-1v0l358 -152q18 -7 28 -15q9 -7 9 -23q0 -32 -5 -44t-15 -11l-13 2l-16 7l-424 189q-21 9 -32 18q-10 10 -10 29t10 28q11 9 32 18l424 189l16 7l13 3q10 1 15 -12q5 -12 5 -43q0 -16 -9 -23q-10 -8 -28 -15l-358 -152v1z" />
    <glyph glyph-name="equal" unicode="=" horiz-adv-x="625" 
d="M575 409v-77h-525v77h525zM575 223v-1v0v-77h-526v77h526v1z" />
    <glyph glyph-name="greater" unicode="&#x3e;" horiz-adv-x="609" 
d="M84 122v-1v0l358 152l-358 151q-18 7 -27 15q-10 7 -10 23q0 31 5 43q6 13 16 12l13 -3l15 -7l424 -188q22 -9 32 -19q10 -9 10 -27q0 -19 -10 -29t-32 -18l-424 -189l-15 -7l-13 -2q-10 -1 -16 11q-5 12 -5 44q0 15 10 23q9 8 27 15v1z" />
    <glyph glyph-name="question" unicode="?" horiz-adv-x="530" 
d="M82 622q-24 5 -28 11q-5 6 1 17q22 53 73 81q50 27 122 28q56 0 103 -18t75 -54q29 -36 30 -91q-2 -62 -31 -104q-29 -43 -69 -78q-34 -32 -61 -74q-26 -41 -28 -113v-25q1 -15 -5 -23q-6 -9 -35 -9q-53 0 -65 9q-12 8 -9 23v25q-1 50 9 86t31 68q22 32 59 70
q31 29 55 62q24 34 25 81q-1 42 -27 64t-66 22q-24 0 -43 -12q-20 -13 -31 -35q-5 -13 -14 -19t-33 -1zM141 49v-1v0q2 33 24 52q22 18 51 19q25 0 44 -16t20 -51q-2 -30 -25 -48q-24 -19 -51 -19q-26 -1 -44 15q-18 15 -19 48v1z" />
    <glyph glyph-name="at" unicode="@" horiz-adv-x="845" 
d="M804 412q-1 -71 -32 -134q-31 -62 -83 -101q-52 -40 -118 -41q-28 1 -51 12t-36 30q-26 -20 -55 -31q-28 -12 -58 -12q-67 1 -110 41t-45 104q0 59 24 114t75 90q51 36 131 37q79 -2 115 -40q36 -37 36 -86l-4 -44l-8 -44l-7 -36l-4 -31q1 -18 5 -29q3 -11 10 -11
q39 0 72 53q32 53 34 155q0 74 -35 132q-34 58 -92 91t-131 34q-86 -2 -151 -48q-65 -47 -101 -119q-37 -72 -38 -152q2 -92 42 -162q40 -69 106 -108q66 -40 144 -40q59 0 106 16t83 49q9 10 23 13t27 -2l28 -13q13 -5 19 -11q5 -5 -9 -19q-53 -53 -121 -78
q-69 -24 -158 -24q-113 1 -203 50q-89 48 -140 134q-52 85 -53 195q2 114 58 201q57 86 147 136q90 49 191 50q106 -1 188 -43q83 -43 130 -115q48 -72 49 -163zM386 205v-1v0q33 1 57 26q25 24 39 61t15 75q0 37 -15 62q-15 26 -48 27q-35 -1 -62 -26q-26 -24 -40 -60
t-15 -72q1 -40 19 -66q17 -26 50 -27v1z" />
    <glyph glyph-name="A" unicode="A" horiz-adv-x="621" 
d="M53 -12q-34 0 -44 15q-9 15 -2 43q85 338 218 621q26 50 48 67q22 16 37 14q15 2 37 -14q23 -17 48 -67q134 -283 218 -621q8 -28 -2 -43q-9 -15 -43 -15q-24 -1 -44 5q-21 7 -28 31l-36 131l-37 121h-226l-37 -121l-35 -131q-8 -24 -28 -31q-20 -6 -44 -5zM397 358v-1v0
l-43 116q-21 54 -45 104l-44 -105l-42 -115h174v1z" />
    <glyph glyph-name="B" unicode="B" horiz-adv-x="650" 
d="M558 552q-1 -50 -30 -89q-30 -39 -77 -63q70 -23 107 -68q38 -46 38 -114q-2 -91 -46 -142q-44 -50 -113 -69q-69 -20 -147 -19q-48 0 -93 7t-82 19q-25 8 -32 16q-8 8 -7 23v629q-1 13 6 22q7 8 34 18q34 12 75 19q42 7 89 7q75 1 138 -18q63 -18 101 -62
q38 -43 39 -116zM206 83l42 -10l44 -3q45 -1 83 9t62 42q23 32 24 97q-1 62 -41 98q-41 36 -111 36h-103v-269zM206 661v-1v0v-233h68q75 0 112 31q37 32 37 94q-2 66 -42 91t-94 24l-42 -2l-39 -5v1z" />
    <glyph glyph-name="C" unicode="C" horiz-adv-x="628" 
d="M534 118v-1v0q24 -2 41 -20q18 -19 19 -36q0 -4 -16 -16q-50 -34 -103 -46q-52 -12 -112 -11q-117 2 -188 58q-70 56 -101 143q-32 86 -31 180q-1 93 31 179q31 87 101 143q71 56 188 57q60 1 112 -11q53 -11 103 -46q16 -10 16 -16q-1 -17 -19 -35q-17 -19 -41 -20
q-16 0 -27 4l-23 12q-28 15 -58 23q-31 8 -64 8q-68 -2 -109 -46q-40 -45 -58 -113q-17 -68 -17 -139q0 -72 17 -140q18 -68 58 -113q41 -45 109 -46q33 0 64 8q31 9 64 25l20 9l24 5v1z" />
    <glyph glyph-name="D" unicode="D" horiz-adv-x="700" 
d="M76 683q-1 13 8 22t32 17q39 14 81 20q41 7 81 6q127 -1 211 -56t126 -141t42 -182q0 -97 -42 -184q-42 -86 -126 -141q-84 -54 -211 -56q-40 0 -82 7q-42 6 -82 19q-24 8 -32 16q-7 8 -6 23v630zM280 71v-1v0q83 1 137 42q54 40 80 105q25 65 25 139q0 79 -27 149
q-28 71 -82 115q-54 45 -133 47q-22 0 -42 -4q-21 -3 -33 -10v-570q12 -6 33 -10l42 -3v1z" />
    <glyph glyph-name="E" unicode="E" horiz-adv-x="604" 
d="M401 346v-1v0h-195v-261q27 -10 60 -12l63 -2q39 0 76 6t76 18l21 3q23 -1 40 -21q16 -19 17 -36l-11 -9l-23 -12q-44 -22 -102 -27t-105 -4q-48 0 -95 6q-46 5 -86 15q-28 6 -44 15q-17 9 -17 29v630q-1 11 3 18t17 14q50 19 106 26q56 8 116 7q47 1 104 -6
q56 -6 98 -24l22 -10q15 -8 17 -12q-1 -17 -17 -36q-17 -19 -40 -21l-9 1l-9 2q-41 12 -79 18q-38 7 -76 7l-63 -2q-33 -3 -60 -13v-225h274q18 -2 24 -19l6 -25q1 -24 -21 -31q-23 -8 -88 -7v1z" />
    <glyph glyph-name="F" unicode="F" horiz-adv-x="563" 
d="M401 335v-1v0h-195v-251q0 -58 -14 -77q-14 -20 -50 -18l-21 1l-30 5q-14 4 -15 11v678q-1 13 6 22q7 8 35 17q47 14 98 20q51 7 103 6q47 1 105 -6t102 -25l23 -12l11 -9q-1 -17 -17 -36q-17 -19 -40 -21l-9 1l-9 2q-41 12 -79 19q-38 6 -76 6l-63 -2q-33 -3 -60 -13
v-236h274q18 -2 24 -19l6 -25q1 -24 -21 -31q-23 -8 -88 -7v1z" />
    <glyph glyph-name="G" unicode="G" horiz-adv-x="657" 
d="M594 243v-1v0v-151q-2 -40 -44 -63q-41 -22 -94 -31q-54 -10 -92 -9q-118 2 -189 58q-70 56 -101 143q-32 86 -31 180q-1 93 31 179q31 87 101 143q71 56 189 57q59 1 111 -11q53 -11 104 -46q15 -10 15 -16q-1 -17 -19 -35q-17 -19 -40 -20q-17 0 -27 4l-24 12
q-28 15 -58 23q-31 8 -63 8q-69 -2 -110 -46q-40 -45 -58 -113q-17 -68 -17 -139q0 -72 17 -140q18 -68 58 -113q41 -45 110 -46q30 0 56 6l46 16v248q1 8 15 12l31 5l22 1q40 2 51 -22q11 -25 10 -94v1z" />
    <glyph glyph-name="H" unicode="H" horiz-adv-x="714" 
d="M205 107v-1v0q1 -71 -10 -95q-11 -25 -51 -23l-22 1l-31 6q-14 4 -15 11v724q1 8 15 12l31 5l22 1q40 2 51 -22q11 -25 10 -95v-199h304v298q1 8 15 12l31 5l23 1q39 2 50 -22q11 -25 10 -95v-525q1 -71 -10 -95q-11 -25 -50 -23l-23 1l-31 6q-14 4 -15 11v344h-304v-244
v1z" />
    <glyph glyph-name="I" unicode="I" horiz-adv-x="283" 
d="M206 107v-1v0q1 -71 -10 -95q-11 -25 -51 -23l-22 1l-31 6q-14 4 -15 11v724q1 8 15 12l31 5l22 1q40 2 51 -22q11 -25 10 -95v-525v1z" />
    <glyph glyph-name="J" unicode="J" horiz-adv-x="282" 
d="M5 -210v-1v0q33 1 49 33q15 32 19 81l3 103v724q1 8 15 12l31 5l22 1q40 2 52 -22q11 -25 10 -95v-689q0 -104 -54 -168q-54 -65 -161 -67q-46 1 -84 12q-39 11 -41 29q1 14 19 35q17 21 34 23l26 -2l18 -6l20 -6l22 -3v1z" />
    <glyph glyph-name="K" unicode="K" horiz-adv-x="631" 
d="M205 107v-1v0q1 -71 -10 -95q-11 -25 -51 -23l-22 1l-31 6q-14 4 -15 11v724q1 8 15 12l31 5l22 1q40 2 51 -22q11 -25 10 -95v-206l257 296q14 16 30 22q17 6 46 5q44 0 57 -7q14 -8 13 -15l-4 -8l-9 -9l-269 -300l298 -381q11 -17 3 -26q-8 -8 -26 -11l-36 -3
q-29 -1 -47 5q-18 5 -32 22l-235 303l-51 -59l5 3v-156v1z" />
    <glyph glyph-name="L" unicode="L" horiz-adv-x="530" 
d="M414 1v-1v0h-287q-35 1 -44 13t-7 28v689q1 8 15 12l31 5l22 1q40 2 51 -22q11 -25 10 -95v-549h286q19 -2 25 -20q7 -17 6 -25q2 -23 -21 -30q-23 -8 -87 -7v1z" />
    <glyph glyph-name="M" unicode="M" horiz-adv-x="930" 
d="M417 16v-1v0l-77 275q-38 134 -76 232q-28 -89 -57 -215q-28 -126 -50 -274q-6 -33 -28 -40q-21 -7 -49 -5q-24 0 -35 10q-10 11 -10 31q17 161 60 336q44 175 121 360q6 12 17 18q12 6 27 5q15 0 27 -6t18 -17q47 -109 89 -224q41 -115 71 -227q30 112 71 227t89 224
q5 11 18 17q12 6 27 6q15 1 26 -5q12 -6 18 -18q77 -185 120 -360t61 -336q0 -20 -11 -31q-10 -10 -34 -10q-28 -2 -50 5q-21 7 -27 40q-22 148 -51 274q-28 126 -56 215q-39 -97 -76 -229l-77 -278q-4 -12 -18 -20q-13 -7 -30 -7t-31 7q-13 8 -17 20v1z" />
    <glyph glyph-name="N" unicode="N" horiz-adv-x="749" 
d="M611 749v-1v0q42 3 52 -25q10 -29 9 -115v-560q-1 -31 -12 -46q-12 -15 -33 -15q-18 0 -38 13q-20 14 -38 38l-342 456v-366q1 -86 -11 -114q-11 -28 -52 -26l-22 1l-29 5q-14 4 -15 11v707q0 19 9 28t26 8q15 0 29 -10q14 -9 25 -23l373 -484v500q1 7 16 11l31 5l22 1v1
z" />
    <glyph glyph-name="O" unicode="O" 
d="M43 367q0 99 34 186q34 86 107 140t189 55q115 -1 187 -55q73 -54 107 -140q35 -87 34 -186q1 -97 -33 -183t-107 -140q-72 -54 -188 -56q-117 2 -190 56q-72 54 -106 140t-34 183zM373 668v-1v0q-71 -2 -114 -45t-62 -111t-19 -144t19 -143q19 -68 62 -110
q43 -43 114 -44q71 1 113 44q43 42 62 110q19 67 18 143q1 76 -18 144t-62 111q-42 43 -113 45v1z" />
    <glyph glyph-name="P" unicode="P" horiz-adv-x="625" 
d="M121 -11l-30 5q-14 4 -15 11v679q0 12 10 22q11 11 36 19q35 11 79 17t89 6q74 1 141 -19q66 -21 107 -70q42 -49 44 -135q-2 -115 -80 -176t-212 -61l-43 1l-41 4v-164q1 -86 -10 -114q-12 -28 -54 -26zM292 370v-1v0q90 1 123 44t32 107q0 71 -37 108q-38 38 -118 39
l-44 -4q-22 -3 -42 -10v-270l43 -11l43 -3v1z" />
    <glyph glyph-name="Q" unicode="Q" 
d="M530 -162l20 6l17 6l27 2q17 -2 34 -22q18 -21 19 -35q-2 -19 -41 -30q-38 -11 -84 -12q-106 2 -160 67q-55 64 -55 168v6q-93 17 -152 73q-58 56 -85 134q-27 79 -27 166q0 99 34 186q34 86 107 140t189 55q115 -1 187 -55q73 -54 107 -140q35 -87 34 -186
q1 -87 -27 -166t-88 -134q-59 -56 -153 -73v-5q0 -26 6 -62q5 -36 22 -63q16 -27 47 -29zM373 668v-1v0q-71 -2 -114 -45t-62 -111t-19 -144t19 -143q19 -68 62 -110q43 -43 114 -44q71 1 113 44q43 42 62 110q19 67 18 143q1 76 -18 144t-62 111q-42 43 -113 45v1z" />
    <glyph glyph-name="R" unicode="R" horiz-adv-x="616" 
d="M305 286l-58 1l-41 5v-164q1 -86 -10 -114q-12 -28 -54 -26l-21 1l-30 5q-14 4 -15 11v679q0 12 10 22q11 11 36 19q35 11 79 17t89 6q74 1 141 -19q66 -20 108 -70q42 -49 44 -135q-1 -75 -39 -129t-109 -84l155 -284q10 -25 -12 -32q-21 -8 -49 -7q-26 -1 -43 4
q-17 6 -27 23zM292 370v-1v0q90 1 123 44t32 107q0 71 -37 108q-38 38 -118 39l-44 -4q-22 -3 -42 -10v-270l43 -11l43 -3v1z" />
    <glyph glyph-name="S" unicode="S" horiz-adv-x="569" 
d="M109 112v-1v0q23 -14 59 -27q36 -14 91 -14q50 0 87 29q36 29 38 82q-1 44 -35 72q-33 28 -82 54q-53 31 -106 69q-53 39 -89 86q-36 48 -37 105q1 52 33 92q32 41 85 65t116 24q61 1 105 -9q43 -9 81 -33q17 -13 10 -36q-6 -22 -24 -37q-18 -16 -37 -6l-13 7
q-22 13 -50 22q-29 10 -72 11q-33 -1 -65 -23q-32 -23 -34 -65q0 -52 41 -90q41 -37 118 -82q47 -29 91 -62q43 -33 70 -73q28 -40 29 -90q-1 -53 -37 -97t-96 -70q-61 -27 -135 -27q-78 0 -121 10t-79 33q-15 10 -6 32q8 23 28 39q19 16 36 9v1z" />
    <glyph glyph-name="T" unicode="T" horiz-adv-x="574" 
d="M289 -11v-1v0l-22 1l-30 5q-14 4 -15 11v650h-180q-20 2 -28 19q-7 17 -7 25q-2 31 26 37q28 7 106 5h395q21 -2 27 -21q7 -19 6 -28q2 -27 -19 -32q-20 -6 -81 -5h-116v-527q2 -86 -10 -114q-11 -28 -52 -26v1z" />
    <glyph glyph-name="U" unicode="U" horiz-adv-x="726" 
d="M592 749v-1v0q42 3 51 -26q9 -28 7 -114v-344q0 -132 -75 -204q-74 -71 -214 -72q-96 1 -159 37q-64 37 -95 99q-31 61 -31 137v470q1 7 15 11l29 5l22 1q42 3 51 -26q9 -28 8 -114v-339q0 -98 40 -149q40 -50 120 -50t121 52q42 52 42 148v461q1 7 15 11l30 5l23 1v1z
" />
    <glyph glyph-name="V" unicode="V" horiz-adv-x="627" 
d="M570 749v-1v0q34 0 44 -15t2 -43q-84 -338 -218 -620q-25 -51 -48 -67q-22 -17 -37 -15q-15 -2 -37 15q-22 16 -48 67q-133 282 -218 620q-7 28 2 43t43 15q25 1 45 -5q20 -7 28 -30q44 -166 88 -302q45 -136 97 -252q55 118 98 251q44 133 88 303q7 23 27 30q21 6 44 5
v1z" />
    <glyph glyph-name="W" unicode="W" horiz-adv-x="916" 
d="M861 749v-1v0q33 0 43 -15t2 -43q-84 -338 -218 -620q-26 -51 -48 -67q-22 -17 -37 -15q-15 -2 -37 15q-22 16 -48 67l-30 62l-30 68l-29 -66l-31 -64q-25 -51 -48 -67q-22 -17 -37 -15q-15 -2 -37 15q-22 16 -48 67q-133 282 -218 620q-7 28 2 43t43 15q25 1 45 -5
q20 -7 28 -30q43 -167 88 -302q45 -136 97 -252l42 98l40 108q-26 73 -50 156l-45 169q-8 28 2 43q9 15 44 15q24 1 44 -5q20 -7 28 -30l14 -59l11 -41l15 -52l21 74l20 78q7 23 27 30q21 6 44 5q34 0 44 -15t2 -43l-46 -170q-23 -82 -49 -155l40 -108l42 -98q55 118 98 251
q44 133 89 303q6 23 27 30q20 6 44 5v1z" />
    <glyph glyph-name="X" unicode="X" horiz-adv-x="569" 
d="M443 13v-1v0q-37 74 -77 140l-81 129l-82 -129q-40 -66 -77 -140q-8 -17 -29 -21q-22 -4 -47 -3q-22 -1 -35 10q-14 10 -4 37q42 89 96 174t112 168l-106 162q-51 83 -96 172q-8 19 7 29q14 9 36 8q28 1 46 -3t31 -24q33 -68 71 -131q37 -62 77 -120l76 120q38 63 71 131
q13 20 32 24q18 4 45 3q23 1 37 -8q15 -10 7 -29q-45 -89 -97 -172l-107 -162q59 -83 113 -167q53 -84 96 -175q10 -27 -3 -37q-13 -11 -36 -10q-26 -1 -47 3q-20 4 -29 21v1z" />
    <glyph glyph-name="Y" unicode="Y" horiz-adv-x="571" 
d="M288 -11v-1v0l-22 1l-30 5q-14 4 -15 11v302l-4 23q-3 13 -8 20l-104 175q-49 87 -93 176q-10 26 4 37t35 10q27 1 47 -5q20 -5 31 -23l86 -159q39 -72 71 -120q33 48 72 120l86 163q8 16 30 20q21 5 46 4q23 1 36 -10q14 -10 3 -37q-38 -79 -87 -166t-111 -185l-7 -19
l-4 -24v-179q2 -86 -10 -114q-11 -28 -52 -26v1z" />
    <glyph glyph-name="Z" unicode="Z" horiz-adv-x="591" 
d="M456 1v-1v0h-389q-12 1 -23 19t-17 40t0 36l416 556h-268q-67 0 -90 7q-24 8 -23 32q0 9 7 27q6 17 24 19h425q12 -1 25 -20q13 -18 20 -41t1 -37l-407 -553h381q17 -2 23 -20q7 -18 6 -27q2 -24 -21 -31q-24 -8 -90 -7v1z" />
    <glyph glyph-name="bracketleft" unicode="[" horiz-adv-x="341" 
d="M62 781v-1v0h173q44 2 56 -8t18 -53q0 -9 -11 -11l-24 -1h-91v-804h91l24 -2q11 -2 11 -12q-6 -43 -18 -53t-56 -8h-173v952v1z" />
    <glyph glyph-name="backslash" unicode="\" horiz-adv-x="395" 
d="M102 762v-1v0l276 -704l10 -33q5 -18 -3 -31q-7 -13 -36 -13q-19 -1 -33 4q-15 5 -23 19l-276 704l-10 33q-4 17 3 30q8 13 36 13q19 1 34 -4q14 -5 22 -18v1z" />
    <glyph glyph-name="bracketright" unicode="]" horiz-adv-x="341" 
d="M106 781v-1v0h173v-952h-173q-44 -2 -56 8t-18 53q0 10 11 12l23 2h92v804h-92l-23 1q-11 2 -11 11q6 43 18 53t56 8v1z" />
    <glyph glyph-name="asciicircum" unicode="^" horiz-adv-x="582" 
d="M333 664v-1v0l191 -247q10 -10 3 -19q-7 -10 -30 -23q-16 -9 -30 -6q-15 4 -26 15l-75 99l-75 100l-75 -100l-76 -99q-11 -11 -25 -15q-14 -3 -30 6q-23 13 -30 23q-7 9 2 19l192 247q10 11 20 16t22 5t22 -5l20 -16v1z" />
    <glyph glyph-name="underscore" unicode="_" horiz-adv-x="534" 
d="M414 -72v-1v0h-382q-19 2 -26 20l-6 24q-2 26 23 32q25 7 97 6h381q18 -2 25 -19q8 -17 8 -25q1 -25 -24 -32t-96 -6v1z" />
    <glyph glyph-name="grave" unicode="`" horiz-adv-x="242" 
d="M109 682v-1v0l-119 125l-1 4q1 10 17 15l35 7l32 1q13 1 23 -3q9 -4 16 -12l78 -119l10 -15q-1 -5 -13 -8l-25 -4l-20 -1l-18 1q-9 2 -15 9v1z" />
    <glyph glyph-name="a" unicode="a" horiz-adv-x="578" 
d="M480 -9l-21 -2l-13 -1q-24 -1 -39 10q-15 10 -16 42v86q-9 -32 -30 -63q-22 -32 -62 -53q-41 -21 -109 -22q-85 2 -125 50q-41 47 -40 115q1 73 46 131t116 91q71 34 151 35l27 -1l26 -2v19q1 61 -22 90t-77 29q-27 -1 -51 -8l-41 -16l-22 -8q-11 -4 -25 -4q-25 2 -41 22
q-15 20 -16 36q2 17 35 30q33 14 78 22q45 7 83 8q55 1 106 -11q51 -11 84 -54t34 -134v-295l2 -67l4 -58q1 -4 -3 -8t-22 -7zM154 147v-1v0q1 -38 20 -57t35 -19q44 2 85 44q42 43 69 99t28 98v10l-28 4h-24q-46 -1 -88 -23t-69 -62q-28 -40 -28 -94v1z" />
    <glyph glyph-name="b" unicode="b" horiz-adv-x="616" 
d="M586 376q0 -89 -39 -178q-38 -88 -115 -148q-78 -60 -194 -62q-42 -1 -80 14t-62 51t-25 97v666q2 11 23 14l38 2q39 2 52 -16t12 -78v-306q4 42 30 87q25 45 69 75q44 31 105 33q79 -2 119 -38q41 -36 54 -93q14 -57 13 -120zM388 546v-1v0q-39 -2 -84 -62
q-44 -60 -75 -149q-32 -89 -33 -180q0 -47 14 -67q14 -21 38 -21q65 2 112 48q46 47 71 116q26 69 26 141q0 45 -7 84t-22 64t-40 26v1z" />
    <glyph glyph-name="c" unicode="c" horiz-adv-x="522" 
d="M483 88v-1v0q7 -10 11 -28q4 -17 -11 -28q-32 -19 -76 -31q-45 -12 -104 -12q-96 1 -152 47t-80 118q-23 73 -23 154t23 154q24 72 80 118t152 48q59 -1 103 -13t77 -30q16 -12 11 -30q-5 -19 -12 -29q-9 -16 -40 -16l-25 3l-22 9l-40 16q-23 7 -52 8q-48 -1 -76 -35
t-40 -88q-11 -54 -11 -115q0 -60 11 -114q12 -54 40 -88t76 -35q27 0 51 8l41 15l21 9l26 3q16 1 26 -4q10 -4 15 -14v1z" />
    <glyph glyph-name="d" unicode="d" horiz-adv-x="631" 
d="M559 8q-1 -8 -20 -13l-37 -6q-18 -1 -17 -1q-26 -1 -41 10q-15 10 -15 42v125q-13 -42 -39 -82q-27 -40 -67 -67t-95 -28q-70 2 -112 43t-60 100q-17 59 -17 113q-1 99 30 186t100 141t183 56l39 -2l38 -6v200q2 11 24 14l37 3q39 1 52 -17t12 -78v-608l2 -67zM247 71v-1
v0q32 2 74 65q43 63 75 157q31 94 33 189v43q-9 8 -33 14l-42 7q-64 -1 -105 -38q-42 -37 -61 -98q-20 -61 -20 -133q0 -44 6 -91q7 -47 25 -81q17 -33 48 -34v1z" />
    <glyph glyph-name="e" unicode="e" horiz-adv-x="552" 
d="M486 65l4 -18q-1 -16 -34 -30q-32 -13 -77 -21t-83 -8q-97 1 -154 48q-56 46 -80 119t-23 154q0 75 27 148q26 72 84 120q57 48 147 50q57 -1 107 -20t82 -55q31 -36 32 -86q-1 -68 -40 -110t-100 -61q-60 -20 -127 -19l-41 1l-41 4q2 -55 15 -103t40 -78t72 -30
q26 0 50 8l41 15l22 9l25 3q29 0 40 -17zM299 546v-1v0q-59 -1 -87 -50q-28 -48 -39 -128l40 -7l35 -3q71 1 106 30q34 29 34 78q-1 34 -27 56q-25 23 -62 24v1z" />
    <glyph glyph-name="f" unicode="f" horiz-adv-x="408" 
d="M198 -11v-1v0l-23 1l-29 5q-14 4 -15 11v528h-82q-17 2 -23 19q-7 17 -6 26q-2 23 21 30q22 7 86 6h4v9q0 103 54 167t160 66q45 0 84 -12q39 -11 41 -29q-1 -14 -19 -34q-18 -21 -35 -23l-26 2l-17 6l-20 6l-22 2q-31 -1 -47 -28q-17 -28 -23 -63q-5 -35 -5 -61v-8h102
q18 -2 25 -19l6 -25q1 -23 -21 -31q-23 -7 -86 -6h-26v-405q2 -86 -7 -114t-51 -26v1z" />
    <glyph glyph-name="g" unicode="g" horiz-adv-x="626" 
d="M508 597q31 -10 39 -19q8 -10 7 -22v-473q1 -158 -69 -248t-219 -92q-55 0 -103 10t-86 32q-15 11 -7 33q9 22 28 38q18 17 34 10l43 -21l46 -15l21 -4l19 -1q73 1 109 46q37 45 48 114q12 68 11 140v39q-12 -42 -33 -82t-61 -67q-39 -27 -107 -28q-70 2 -112 43t-60 100
q-17 59 -17 113q-1 99 30 186t100 141t183 56q40 -1 78 -8q39 -8 78 -21zM247 70v-1v0q32 2 74 65q43 63 75 157q31 94 33 189v43q-9 8 -33 14l-42 7q-64 -1 -105 -38q-42 -37 -61 -98q-20 -61 -20 -133q0 -44 6 -91q7 -47 25 -81q17 -33 48 -34v1z" />
    <glyph glyph-name="h" unicode="h" horiz-adv-x="658" 
d="M197 697v-1v0v-313q11 48 36 104q24 56 69 97t118 43q64 -1 101 -30t52 -74t15 -94v-301q2 -86 -8 -114q-9 -28 -51 -26l-22 1l-29 5q-14 4 -15 11v409q0 54 -14 91q-14 38 -48 40q-28 -2 -62 -45q-35 -43 -67 -108q-33 -66 -54 -134t-21 -119v-11q1 -86 -8 -114t-51 -26
l-22 1l-30 5q-13 4 -14 11v814q1 7 14 10l30 5l22 2q42 2 51 -26t8 -114v1z" />
    <glyph glyph-name="i" unicode="i" horiz-adv-x="299" 
d="M133 627q43 2 52 -26q9 -29 7 -115v-334q0 -40 4 -61q3 -21 12 -21q6 0 10 4l9 8l9 3l9 1q19 -2 34 -22q15 -19 16 -34q-2 -7 -29 -24q-28 -16 -64 -18q-63 0 -91 25q-29 24 -37 67q-7 43 -6 99v430q1 7 14 11l30 5zM66 759v-1v0q1 32 23 51t50 19q26 1 44 -15
q19 -16 20 -51q-2 -31 -25 -49t-50 -19q-25 0 -43 15q-19 15 -19 49v1z" />
    <glyph glyph-name="j" unicode="j" horiz-adv-x="286" 
d="M4 -211q31 1 47 29q17 27 22 63q6 36 6 62v666q1 7 15 11l29 5l22 2q42 2 51 -26q10 -29 8 -115v-544q0 -104 -54 -168t-159 -66q-46 0 -84 11q-39 11 -41 30q1 14 18 35q18 20 35 22l26 -2l17 -6l20 -6zM74 759v-1v0q1 32 24 51q22 19 50 19q26 1 44 -15q19 -16 20 -51
q-1 -31 -25 -49q-23 -18 -51 -19q-25 0 -43 15t-19 49v1z" />
    <glyph glyph-name="k" unicode="k" horiz-adv-x="586" 
d="M138 -11v-1v0l-22 1l-30 5q-13 4 -14 11v814q2 11 23 14l38 3q39 1 52 -17t12 -78v-348l208 209q12 12 25 18q14 7 35 7l37 -2q24 -2 38 -11t-7 -30l-262 -259l297 -294l9 -10l5 -7q1 -8 -13 -17q-15 -9 -69 -9q-22 0 -36 6q-13 7 -24 18l-243 245v-129q1 -86 -8 -114
t-51 -26v1z" />
    <glyph glyph-name="l" unicode="l" horiz-adv-x="297" 
d="M66 180v-1v0v640q2 11 23 14l38 3q39 1 52 -17q12 -18 11 -78v-590l3 -60q4 -21 13 -21q6 0 10 4l9 8l9 3l9 1q19 -2 34 -22q15 -19 16 -34q-2 -7 -30 -24q-27 -16 -63 -18q-63 0 -92 25q-28 24 -36 67q-7 43 -6 99v1z" />
    <glyph glyph-name="m" unicode="m" horiz-adv-x="1030" 
d="M395 546v-1v0q-37 -3 -72 -55t-64 -125q-28 -73 -45 -138t-17 -94v-5q1 -86 -8 -114t-51 -26l-22 1l-30 5q-13 4 -14 11v604q1 7 14 11l30 5l22 2q42 2 51 -26q9 -29 8 -115v-64q13 46 40 93t70 79q43 31 104 33q87 -3 125 -53t41 -118v-36q14 45 42 92q27 48 70 80
q43 33 102 35q67 -2 104 -33q37 -32 51 -80t13 -100v-286q2 -86 -7 -114t-51 -26l-22 1l-30 5q-13 4 -14 11v409q-1 56 -16 93q-15 36 -43 38q-28 -2 -62 -44q-33 -43 -64 -107t-51 -129t-21 -111v-26q2 -86 -7 -114t-51 -26l-22 1l-30 5q-13 4 -14 11v419q-1 53 -16 86
q-16 34 -43 35v1z" />
    <glyph glyph-name="n" unicode="n" horiz-adv-x="658" 
d="M197 488v-1v0v-104q11 48 36 104q24 56 69 97t118 43q64 -1 101 -30t52 -74t15 -94v-301q2 -86 -8 -114q-9 -28 -51 -26l-22 1l-29 5q-14 4 -15 11v409q0 54 -14 91q-14 38 -48 40q-28 -2 -62 -45q-35 -43 -67 -108q-33 -66 -54 -134t-21 -119v-11q1 -86 -8 -114t-51 -26
l-22 1l-30 5q-13 4 -14 11v605q1 7 14 10l30 5l22 2q42 2 51 -26t8 -114v1z" />
    <glyph glyph-name="o" unicode="o" horiz-adv-x="586" 
d="M39 307q-1 81 23 154q23 72 79 118q55 46 152 48q96 -2 152 -48t79 -118q23 -73 23 -154t-23 -154q-23 -72 -79 -118t-152 -47q-97 1 -152 47q-56 46 -79 118q-24 73 -23 154zM293 546v-1v0q-48 -1 -76 -36q-27 -34 -38 -88q-12 -54 -11 -115q-1 -60 11 -114
q11 -54 38 -87q28 -34 76 -35q48 1 75 35q27 33 39 87q11 54 11 114q0 61 -11 115q-12 54 -39 88q-27 35 -75 36v1z" />
    <glyph glyph-name="p" unicode="p" horiz-adv-x="616" 
d="M588 376q0 -89 -39 -178q-38 -88 -115 -148q-78 -60 -194 -62l-22 1l-20 2v-153q1 -86 -8 -114t-51 -26l-22 1l-29 6q-14 3 -15 10v894q2 12 23 15l38 3q39 1 52 -17q13 -19 12 -78v-110q4 42 30 89q25 47 69 81q44 33 105 35q79 -2 119 -38q41 -36 54 -93
q14 -57 13 -120zM390 546v-1v0q-37 -2 -81 -61q-45 -58 -77 -148q-33 -89 -34 -182q0 -47 14 -67q14 -21 38 -21q65 2 112 48q47 47 72 116t25 141q0 45 -7 84t-22 64t-40 26v1z" />
    <glyph glyph-name="q" unicode="q" horiz-adv-x="626" 
d="M487 -303q-41 -2 -51 26q-9 28 -7 114v329q-11 -42 -31 -82q-19 -40 -59 -67t-111 -28q-70 2 -112 43t-60 100q-17 59 -17 113q-1 99 30 186t100 141t183 56q40 -1 78 -9q39 -7 78 -20q29 -10 38 -19q9 -10 8 -22v-844q-1 -7 -15 -11l-30 -5zM247 72v-1v0q32 2 74 65
q43 63 75 157q31 94 33 189v43q-9 8 -33 14l-42 7q-64 -1 -105 -38q-42 -38 -61 -98q-20 -61 -20 -134q0 -43 6 -90q7 -47 25 -81q17 -33 48 -34v1z" />
    <glyph glyph-name="r" unicode="r" horiz-adv-x="507" 
d="M197 487v-1v0v-87q11 50 41 102q30 53 76 88q47 36 107 38q30 1 52 -7q22 -7 16 -36q-11 -54 -28 -66q-16 -12 -42 -7q-55 3 -97 -38q-41 -42 -69 -105q-28 -64 -42 -128t-14 -107v-31q0 -69 -10 -92q-10 -24 -49 -22l-22 1l-30 5q-13 4 -14 11v604q1 7 14 11l30 5l22 2
q42 2 51 -26q9 -29 8 -115v1z" />
    <glyph glyph-name="s" unicode="s" horiz-adv-x="486" 
d="M344 512v-1v0l-55 25q-24 9 -51 9q-36 -1 -54 -18q-17 -16 -17 -42q1 -42 34 -72q34 -29 86 -58q41 -23 78 -49t62 -58q24 -32 25 -72q-1 -58 -34 -100t-86 -65t-115 -23q-42 -1 -90 7q-47 8 -81 27q-10 6 -16 14q-5 7 -5 14q1 20 18 37t40 18l11 -1l8 -3q25 -14 55 -23
q31 -8 63 -8q53 1 78 29t25 63q-2 39 -36 63q-33 24 -72 44q-77 44 -126 92t-51 104q1 83 55 123q54 39 144 39q41 0 82 -8q41 -9 80 -32q12 -7 17 -14q5 -6 5 -13q-1 -19 -18 -35q-16 -16 -39 -17l-12 1l-8 2v1z" />
    <glyph glyph-name="t" unicode="t" horiz-adv-x="393" 
d="M270 534v-1v0h-10v-381l3 -61q3 -21 12 -21q7 0 11 4l9 8l8 3l9 1q20 -2 35 -22q15 -19 15 -34q-1 -7 -29 -24q-28 -16 -64 -18q-62 0 -91 25q-29 24 -36 67q-8 43 -7 99v354h-96q-18 2 -24 19t-6 26q-1 23 21 30t87 6h18v59q2 30 22 47q21 17 43 27q43 24 52 7
q10 -16 8 -43v-97h88q18 -2 25 -19l6 -25q1 -23 -21 -31q-23 -7 -88 -6v1z" />
    <glyph glyph-name="u" unicode="u" horiz-adv-x="665" 
d="M129 627v-1v0l22 -2l30 -5q14 -4 15 -11v-427q-1 -34 13 -66t45 -34q35 1 72 43q36 42 67 106t50 132q18 68 19 123v37q-1 62 10 84q12 22 48 21l22 -2l30 -5q14 -4 15 -11v-476l2 -67l4 -58q-1 -9 -16 -14l-33 -5l-26 -1q-26 -1 -41 10q-15 10 -15 42v156
q-12 -45 -39 -90q-28 -45 -73 -76t-111 -32q-62 1 -99 27t-53 68q-17 41 -16 88v304q-2 86 7 115q9 28 51 26v1z" />
    <glyph glyph-name="v" unicode="v" horiz-adv-x="560" 
d="M58 628v-1v0q25 0 44 -6q20 -6 27 -30q33 -117 70 -224t82 -207q45 100 81 207q37 107 69 224q8 24 27 30q20 6 44 6q34 -1 46 -16q12 -16 2 -43q-35 -121 -81 -247q-46 -127 -104 -251q-25 -51 -47 -67q-22 -17 -37 -15q-15 -2 -38 15q-22 16 -47 67q-58 124 -104 250
q-46 127 -82 247q-10 28 2 44q13 15 46 16v1z" />
    <glyph glyph-name="w" unicode="w" horiz-adv-x="799" 
d="M485 502v-1v0l39 -162l21 -92l19 -73q32 93 57 200l47 217q5 24 25 30q21 6 45 6q41 -1 48 -19q8 -18 2 -40l-26 -123q-16 -73 -38 -152q-23 -79 -49 -148t-56 -113q-29 -43 -60 -44q-37 2 -67 60q-30 57 -53 141t-40 165q-17 -81 -40 -165t-53 -141q-30 -58 -66 -60
q-31 1 -61 44q-29 44 -55 113q-27 69 -49 148t-38 152l-26 123q-7 22 1 40q7 18 47 19q25 0 45 -6q21 -6 27 -30l48 -217q26 -108 58 -200l15 65l23 98l37 164l14 45q9 30 27 54q18 25 46 27q28 -2 46 -27q18 -24 28 -54l12 -45v1z" />
    <glyph glyph-name="x" unicode="x" horiz-adv-x="503" 
d="M486 590v-1v0q-34 -67 -77 -134t-91 -133q51 -71 96 -142q46 -70 80 -146q10 -26 -4 -36q-13 -11 -35 -10q-25 -1 -47 4q-21 5 -29 20q-30 60 -63 113l-65 100l-66 -103q-33 -54 -61 -110q-9 -15 -30 -20t-46 -4q-22 -1 -35 10q-14 10 -4 36q33 75 79 146q45 71 95 142
l-90 132q-42 67 -77 135q-8 20 7 29q14 9 36 9l46 -3q18 -4 29 -22q26 -49 56 -96l61 -92l59 88q30 47 58 100q11 18 29 22l46 3q23 0 38 -9q14 -9 5 -29v1z" />
    <glyph glyph-name="y" unicode="y" horiz-adv-x="658" 
d="M520 627v-1v0l22 -2l30 -5q14 -4 15 -11v-525q0 -158 -69 -248t-218 -92q-61 -1 -104 8t-80 34q-14 11 -5 33q8 22 27 38q18 17 33 10q26 -16 58 -28q33 -12 65 -13q72 1 109 42q36 42 48 110q12 67 11 148v50q-41 -72 -98 -123q-58 -52 -125 -54q-62 1 -99 27t-53 68
q-17 41 -16 88v304q-2 86 7 115q9 28 51 26l22 -2l30 -5q14 -4 15 -11v-397q-1 -54 13 -92q15 -38 48 -39q32 2 67 46q35 45 67 112q31 67 51 136q19 68 20 117q-2 82 8 109q10 28 50 26v1z" />
    <glyph glyph-name="z" unicode="z" horiz-adv-x="529" 
d="M397 1v-1v0h-335q-11 1 -21 18t-15 38q-4 22 2 36l329 441h-194q-65 -1 -87 6q-23 8 -22 31l6 25q7 17 25 19h357q13 -1 24 -19q12 -17 17 -39q6 -22 0 -36l-320 -438h313q17 -2 23 -20l6 -25q1 -23 -21 -30q-23 -8 -87 -7v1z" />
    <glyph glyph-name="braceleft" unicode="{" horiz-adv-x="404" 
d="M263 494v-1v0q1 -53 -18 -103q-20 -49 -72 -87q52 -38 72 -87q19 -50 18 -102l-1 -38l-2 -37l-2 -34l-1 -34q0 -31 12 -54q11 -23 35 -25h35l23 -1q10 -2 11 -12q-6 -40 -17 -50q-12 -9 -54 -7h-30q-55 1 -84 25t-39 62t-10 82l1 40l2 39l2 30l1 28q2 49 -14 90
q-16 42 -68 55v61q52 12 68 54t14 90l-1 28l-2 31l-2 39l-1 39q-2 67 25 117q26 50 108 52h30q42 2 54 -7q11 -9 17 -50q-1 -9 -11 -12l-23 -1h-35q-24 -1 -35 -25q-12 -23 -12 -54l1 -34l2 -35l2 -36l1 -37v1z" />
    <glyph glyph-name="bar" unicode="|" horiz-adv-x="270" 
d="M190 -83v-1v0q2 -70 -8 -94t-44 -23l-19 2l-26 5q-12 4 -13 12v927q1 8 13 12l26 5l19 2q34 2 44 -23q10 -24 8 -95v-730v1z" />
    <glyph glyph-name="braceright" unicode="}" horiz-adv-x="392" 
d="M136 492v-1v0l1 37l2 36l2 35l1 34q0 31 -11 54q-12 24 -36 25h-35l-22 1q-11 2 -11 12q5 41 17 50q11 9 53 7h30q82 -2 109 -52q26 -50 24 -117l-1 -39l-2 -39l-2 -31l-1 -28q-2 -48 14 -90q17 -42 69 -54v-61q-52 -13 -69 -55q-16 -41 -14 -90l1 -28l2 -30l2 -39l1 -40
q1 -44 -9 -82q-11 -38 -39 -62q-29 -24 -85 -25h-30q-42 -2 -53 7q-12 10 -17 50q0 10 11 12l22 1h35q24 2 36 25q11 23 11 54l-1 34l-2 34l-2 37l-1 38q-1 52 19 102q19 49 71 87q-52 38 -71 87q-20 50 -19 103v1z" />
    <glyph glyph-name="asciitilde" unicode="~" horiz-adv-x="640" 
d="M410 176v-1v0q-48 1 -79 17l-55 30q-24 15 -54 17q-16 0 -29 -11q-13 -12 -26 -37q-5 -9 -14 -12q-9 -4 -21 -4q-17 0 -38 8q-21 7 -23 20l1 8l4 11q25 56 65 83q40 28 88 28q46 -1 76 -17l55 -30q25 -16 57 -17q16 0 29 12q13 11 26 36q4 8 14 12q9 4 21 4q18 0 39 -8
q21 -7 23 -20q1 -6 -4 -16q-22 -58 -64 -86t-91 -28v1z" />
    <glyph glyph-name="exclamdown" unicode="&#xa1;" horiz-adv-x="362" 
d="M249 -140q1 -70 -10 -94q-11 -25 -51 -23q-57 -1 -69 11q-11 12 -6 45l5 164l5 202l9 189q2 12 14 15l26 4l26 -3q11 -4 16 -16q9 -17 14 -67q6 -51 11 -153zM113 490v-1v0q1 32 23 51q23 20 51 20q25 0 44 -16q19 -15 20 -50q-2 -31 -25 -49t-51 -19q-25 0 -43 15
t-19 48v1z" />
    <glyph glyph-name="cent" unicode="&#xa2;" horiz-adv-x="522" 
d="M483 32v-1v0q-25 -14 -56 -24q-31 -11 -70 -16q1 -69 -9 -92q-10 -24 -44 -23l-19 2l-26 5q-12 4 -13 12v99q-75 16 -118 63q-44 47 -62 112q-18 66 -18 138t18 138q18 65 62 113q43 47 118 63v99q1 7 13 11l26 6l19 1q34 2 44 -22t9 -92q38 -6 69 -17q32 -10 56 -23
q17 -12 12 -31q-5 -18 -12 -28q-9 -16 -40 -16q-15 0 -25 4l-19 8q-27 12 -49 17t-40 5q-56 -2 -85 -40q-29 -39 -39 -93t-9 -103q-1 -43 8 -98q9 -54 38 -95q28 -40 85 -42q25 0 49 6l43 16l20 8l23 3q16 0 25 -4q10 -5 16 -14l11 -28q4 -17 -11 -28v1z" />
    <glyph glyph-name="sterling" unicode="&#xa3;" horiz-adv-x="679" 
d="M388 326v-1v0h-96l-4 -108q-4 -54 -16 -92t-37 -43h351l24 -2q10 -2 11 -13q-6 -43 -16 -56q-10 -12 -45 -11h-433q-35 1 -44 13t-7 29q2 20 7 30q6 11 35 10q29 2 39 45t9 101v97h-45q-18 2 -25 18l-6 25q-1 21 16 28q16 8 61 9q2 88 27 167q25 80 84 130q59 51 164 53
q42 0 91 -16q48 -15 97 -48q15 -10 15 -16q-1 -17 -18 -35q-18 -19 -41 -20q-17 0 -27 4l-23 12q-27 13 -52 19q-26 6 -47 6q-62 -1 -93 -37q-32 -36 -42 -94t-10 -125h152q18 -2 25 -19t6 -25q1 -22 -18 -30q-18 -7 -69 -6v1z" />
    <glyph glyph-name="currency" unicode="&#xa4;" horiz-adv-x="600" 
d="M559 312q0 -34 -10 -69q-10 -34 -32 -68l55 -55l-79 -81l-59 59q-30 -17 -63 -25t-71 -7q-74 0 -132 33l-59 -60l-81 81l55 55q-21 33 -32 67q-11 35 -11 69q0 36 11 70q11 35 32 68l-55 55l78 81l62 -62q30 18 63 26t70 8t70 -8t63 -26l59 60l79 -81l-54 -54
q21 -33 31 -67q10 -33 10 -69zM300 142v-1v0q65 2 109 50q43 49 45 121q-2 71 -46 119q-43 48 -107 50q-65 -1 -109 -49q-45 -48 -47 -121q2 -70 47 -119q44 -49 108 -51v1z" />
    <glyph glyph-name="yen" unicode="&#xa5;" horiz-adv-x="570" 
d="M426 114v-1v0h-76q1 -77 -11 -102q-13 -25 -51 -23l-22 1l-30 5q-14 4 -15 11v108h-149q-18 2 -24 18l-6 25q-1 24 21 31q22 6 87 5h71v34h-149q-18 2 -24 19l-6 25q-1 24 21 30q22 7 87 6h71l-4 23q-3 13 -8 20q-54 86 -104 174q-49 88 -93 177q-10 25 4 36t36 10
q26 1 46 -5q20 -5 31 -23l86 -159q39 -71 71 -119q32 48 71 119l86 163q8 16 30 20q22 5 46 4q23 1 36 -10q14 -10 3 -36q-38 -80 -87 -166q-49 -87 -110 -185l-7 -19l-4 -24h153q18 -2 24 -18q7 -17 6 -25q2 -24 -21 -31q-22 -6 -86 -6h-76v-34h153q18 -2 24 -18
q7 -17 6 -25q2 -24 -21 -31q-22 -6 -86 -5v1z" />
    <glyph glyph-name="brokenbar" unicode="&#xa6;" horiz-adv-x="270" 
d="M190 486q2 -69 -8 -94q-10 -24 -44 -22l-19 1l-26 5q-12 4 -13 12v357q1 8 13 12l26 5l19 2q34 2 44 -23q10 -24 8 -95v-160zM190 -79v-1v0q2 -70 -8 -94t-44 -23l-19 2l-26 5q-12 4 -13 12v357q1 8 13 12l26 5l19 2q34 1 44 -23t8 -94v-161v1z" />
    <glyph glyph-name="section" unicode="&#xa7;" horiz-adv-x="554" 
d="M376 774l-60 29q-35 14 -69 13q-21 -2 -34 -19t-13 -40q2 -45 37 -76q36 -32 84 -57q40 -23 77 -49t61 -57q23 -31 24 -71q0 -49 -18 -87t-56 -63q33 -26 53 -56q21 -29 21 -65q0 -89 -57 -138q-56 -49 -163 -50q-61 -1 -103 9t-81 34q-13 11 -4 33q8 21 26 37
q18 15 34 10q25 -15 56 -27q31 -13 61 -14q53 1 79 29q25 28 24 63q-1 45 -37 73q-36 27 -96 58t-104 73q-45 42 -47 99q-1 43 20 80q20 38 64 61q-37 28 -60 60t-24 70q-1 64 42 111t134 50q61 1 104 -8t80 -34q13 -11 5 -33t-27 -39q-18 -16 -34 -9h1zM200 486v-1v0
q1 -45 34 -74q33 -30 79 -56q22 14 32 35q10 20 10 43q-1 43 -30 69q-29 25 -65 42q-21 -1 -40 -16t-20 -43v1z" />
    <glyph glyph-name="dieresis" unicode="&#xa8;" horiz-adv-x="283" 
d="M-27 734q2 32 24 51t51 20q25 0 43 -16q19 -16 20 -51q-2 -30 -25 -48q-23 -19 -50 -19q-26 0 -44 15t-19 48zM172 735v-1v0q1 32 23 51q23 19 51 20q25 0 44 -16q18 -16 19 -51q-1 -30 -24 -48q-23 -19 -52 -19q-24 0 -42 15t-19 48v1z" />
    <glyph glyph-name="copyright" unicode="&#xa9;" horiz-adv-x="842" 
d="M421 -13q-113 1 -201 54t-139 138q-50 85 -51 183q1 106 54 190q53 85 141 135q89 50 197 51q114 -1 202 -53q87 -52 137 -139q50 -88 51 -195q-2 -113 -58 -194q-57 -82 -146 -126t-187 -44zM421 50q83 1 149 43q67 42 106 112t40 157q-1 88 -40 158q-38 70 -105 112
q-66 42 -149 43q-87 -2 -153 -47q-66 -46 -104 -117q-37 -71 -38 -149q1 -90 43 -161q42 -70 109 -110q66 -40 142 -41zM536 197v-1v0q13 -1 27 -13q14 -11 18 -26t-12 -25q-25 -14 -60 -24q-36 -10 -85 -11q-80 2 -126 39t-66 95q-20 59 -19 125q-1 67 19 125q20 59 66 95
q46 37 126 38q47 0 83 -10q36 -9 62 -23q14 -9 12 -23q-3 -14 -11 -26q-3 -7 -12 -11l-22 -3l-24 3l-16 6l-32 13q-18 6 -40 7q-38 -1 -60 -28q-22 -28 -31 -71t-8 -92q-1 -48 8 -91q9 -44 31 -71t60 -28q22 0 40 6l32 13l16 7l24 4v1z" />
    <glyph glyph-name="ordfeminine" unicode="&#xaa;" horiz-adv-x="309" 
d="M256 432l-11 -1q-5 -1 -4 -1q-14 0 -21 5q-8 6 -8 21v43q-6 -25 -28 -46t-71 -23q-43 1 -63 25t-20 57q2 56 48 91q47 36 107 37h14l13 -1v9q0 31 -11 45q-11 15 -38 15l-26 -4l-20 -8l-11 -4l-13 -2q-12 1 -19 11q-8 10 -8 18t17 15l39 10l41 4q42 3 76 -14
q33 -17 35 -85v-146l1 -34l2 -29l-1 -4l-12 -3zM94 510v-1v0q1 -19 10 -29q9 -9 18 -9q21 1 42 22q20 22 34 50t14 49v4l-14 2h-12q-35 0 -63 -25q-27 -24 -29 -64v1z" />
    <glyph glyph-name="guillemotleft" unicode="&#xab;" horiz-adv-x="468" 
d="M35 296l156 193q15 20 25 18q11 -2 34 -28l14 -17q3 -6 -3 -13l-116 -153l116 -152q6 -7 3 -13q-3 -7 -14 -17q-23 -26 -34 -28q-10 -2 -25 16zM358 103v-1v0l-155 194l155 193q15 20 25 18q11 -2 34 -28l14 -17q3 -6 -3 -13l-116 -153l116 -152q6 -7 3 -13
q-3 -7 -14 -17q-23 -26 -34 -28q-10 -2 -25 16v1z" />
    <glyph glyph-name="logicalnot" unicode="&#xac;" horiz-adv-x="624" 
d="M49 411v-1v0h525v-274h-105v198h-420v76v1z" />
    <glyph glyph-name="registered" unicode="&#xae;" horiz-adv-x="842" 
d="M421 -13q-113 1 -201 54t-139 138q-50 85 -51 184q1 105 54 189q53 85 141 135q89 50 197 51q114 -1 202 -53q87 -52 137 -139q50 -88 51 -195q-2 -113 -58 -194q-57 -82 -146 -126t-187 -44zM421 50q83 1 149 43q67 42 106 112t40 158q-1 87 -40 157q-38 70 -105 112
q-66 42 -149 43q-87 -2 -153 -47q-66 -46 -104 -117q-37 -71 -38 -148q1 -91 43 -162q42 -70 109 -110q66 -40 142 -41zM420 325h-37l-27 4v-105q1 -54 -6 -72q-8 -18 -34 -17l-23 2q-17 3 -19 9v430q0 9 7 15q6 7 22 12l50 11l57 3q47 1 89 -12t69 -44q26 -30 27 -85
q0 -48 -24 -82t-69 -53l98 -181q6 -15 -8 -20q-13 -5 -31 -5l-27 3q-10 4 -17 16zM411 378v-1v0q57 1 78 28q21 28 20 68q0 45 -23 69q-24 24 -75 24l-28 -2l-27 -7v-171l27 -7l28 -2v1z" />
    <glyph glyph-name="macron" unicode="&#xaf;" horiz-adv-x="263" 
d="M209 672v-1v0h-203q-16 1 -21 12t-4 16q-2 15 13 20q14 4 59 4h202q17 -1 23 -12l5 -16q1 -15 -14 -20t-60 -4v1z" />
    <glyph glyph-name="degree" unicode="&#xb0;" horiz-adv-x="433" 
d="M216 742q67 -1 112 -42q45 -40 47 -100q-2 -61 -48 -100q-45 -40 -111 -41q-66 1 -111 42q-45 40 -47 100q2 61 48 100q45 40 110 41zM217 518v-1v0q29 1 48 24t20 58q-1 35 -19 60q-19 24 -48 25q-30 -1 -49 -24q-20 -23 -21 -58q1 -37 20 -61q19 -23 49 -24v1z" />
    <glyph glyph-name="plusminus" unicode="&#xb1;" horiz-adv-x="628" 
d="M259 283h-180q-17 2 -24 19l-6 25q-1 23 21 30q23 6 87 5h102v195q1 6 13 9l26 5l20 1q34 2 43 -18q10 -19 9 -75v-117h179q17 -1 23 -18q7 -16 6 -25q2 -24 -20 -31q-23 -6 -87 -5h-101v-195q-1 -6 -13 -9l-26 -5l-20 -1q-34 -2 -43 18q-10 19 -9 74v118zM471 -11v-1v0
h-392q-17 2 -24 19l-6 24q-1 24 21 31q23 6 87 6h392q17 -2 23 -19q7 -17 6 -24q2 -25 -20 -31q-23 -7 -87 -6v1z" />
    <glyph glyph-name="twosuperior" unicode="&#xb2;" horiz-adv-x="354" 
d="M85 333v-1v0q-10 1 -20 11q-10 11 -11 23l2 5l4 6l145 160q21 22 32 47q12 25 12 54q0 35 -13 49q-14 15 -38 15q-19 -1 -37 -8l-38 -15q-6 -4 -18 -4q-13 1 -23 11t-10 20l2 3l6 6q22 15 53 23q32 8 64 8q54 2 88 -22t35 -86q-1 -42 -25 -80t-53 -69l-104 -110h163
l11 -2q6 -2 6 -6q-3 -24 -10 -32t-32 -7h-191v1z" />
    <glyph glyph-name="threesuperior" unicode="&#xb3;" horiz-adv-x="278" 
d="M152 569v-1v0h32q33 1 50 20q16 19 16 51q-1 34 -19 49t-45 15q-14 -1 -29 -7l-28 -12l-17 -7l-17 -3q-13 1 -22 10q-10 9 -10 19l1 3l6 6q22 15 53 25q31 9 67 9q52 1 91 -24q40 -25 41 -79q0 -33 -17 -58t-50 -37q22 -8 48 -34q26 -25 29 -71q-3 -63 -48 -91
q-46 -28 -108 -27q-35 0 -65 7q-29 8 -53 24q-8 6 -8 10q1 9 11 19t23 11l15 -2l13 -7l18 -8l22 -6l22 -2q33 -1 59 17q26 17 27 57q0 37 -20 58t-58 21q-29 0 -39 6q-9 5 -8 15l4 13q4 9 13 10v1z" />
    <glyph glyph-name="acute" unicode="&#xb4;" horiz-adv-x="233" 
d="M125 819v-1v0q5 8 23 11q18 4 38 3q24 0 41 -5t18 -16l-1 -6l-4 -6l-112 -118q-6 -7 -14 -9l-19 -1l-34 1q-18 2 -19 13l1 6l4 8l78 119v1z" />
    <glyph glyph-name="mu" unicode="&#xb5;" horiz-adv-x="665" 
d="M129 627v-1v0l22 -2l30 -5q14 -4 15 -11v-427q-1 -34 13 -66t45 -34q35 1 72 43q36 42 67 106t50 132q18 68 19 123v37q-1 62 10 84q12 22 48 21l22 -2l30 -5q14 -4 15 -11v-476l2 -67l4 -58q-1 -9 -16 -14l-33 -5l-26 -1q-26 -1 -41 10q-15 10 -15 42v125
q-34 -68 -89 -116q-55 -49 -134 -51l-23 1l-20 3v-45l1 -67l5 -58q-1 -9 -16 -14l-33 -5l-26 -1q-26 -1 -41 10q-15 10 -15 42v621q-2 86 7 115q9 28 51 26v1z" />
    <glyph glyph-name="paragraph" unicode="&#xb6;" horiz-adv-x="632" 
d="M544 753v-1v0v-870h-112v799h-65v-799h-113l1 455q-92 8 -148 63t-58 143q2 93 63 150q62 57 167 59h265v1z" />
    <glyph glyph-name="periodcentered" unicode="&#xb7;" horiz-adv-x="286" 
d="M212 315v-1v0q-1 -22 -21 -37q-19 -15 -48 -16q-29 1 -49 16q-19 15 -20 37q1 23 20 39q20 15 49 16q29 -1 48 -16q20 -16 21 -39v1z" />
    <glyph glyph-name="cedilla" unicode="&#xb8;" horiz-adv-x="210" 
d="M16 -46v-1v0l39 84l78 -6l-23 -55q40 -6 62 -26q22 -21 22 -48q-2 -49 -41 -68q-40 -19 -91 -18q-14 -1 -27 2q-12 4 -13 18q0 8 10 11l30 7q15 2 27 13t12 29q0 12 -13 21q-14 9 -36 9q-25 -1 -35 3t-1 24v1z" />
    <glyph glyph-name="onesuperior" unicode="&#xb9;" horiz-adv-x="500" 
d="M153 391v-1v0v278l-17 -14l-16 -12q-9 -6 -19 -6t-15 4q-5 5 -5 15v12l3 12l11 11l47 39l20 13q11 4 28 4q23 1 29 -12t5 -52v-347q-2 -6 -16 -8l-22 -2q-22 -1 -28 12q-6 14 -5 53v1z" />
    <glyph glyph-name="ordmasculine" unicode="&#xba;" horiz-adv-x="394" 
d="M199 416q-87 1 -133 46q-47 46 -48 125q1 78 48 123q47 46 133 47q84 -1 130 -46q46 -46 47 -124q-1 -78 -47 -124t-130 -47zM279 588v-1v0q0 58 -21 88q-20 30 -60 30q-42 0 -62 -30t-20 -89t20 -88t62 -29q40 0 60 29q21 30 21 89v1z" />
    <glyph glyph-name="guillemotright" unicode="&#xbb;" horiz-adv-x="467" 
d="M276 102l-12 -12l-10 -4q-7 0 -16 8l-26 25l-7 8l-2 7q-1 5 4 10l116 152l-116 152q-5 7 -4 10l2 7l7 8l26 26q9 8 16 8q5 0 10 -5l12 -13l78 -97l78 -96zM265 297v-1v0l-156 -194l-12 -12l-10 -4q-7 0 -16 8l-27 25q-9 8 -9 15l4 10l117 152l-117 152l-4 11l2 6l7 8
l27 26q9 8 16 8q5 0 10 -5l12 -13l156 -193v1z" />
    <glyph glyph-name="onequarter" unicode="&#xbc;" horiz-adv-x="987" 
d="M114 628q-10 -9 -23 -15q-14 -5 -30 -6q-20 0 -30 9q-10 8 -10 27v14q0 10 6 20l16 19l62 54q13 11 30 17q16 6 44 6q38 1 49 -18q11 -20 10 -77v-453q-1 -11 -14 -16l-29 -7l-22 -1q-39 -2 -50 18t-9 77v332zM523 736q10 17 28 24q17 7 34 7q24 0 40 -8t17 -27
q0 -10 -5 -24l-10 -29l-268 -686q-9 -17 -33 -24q-24 -6 -38 -6q-34 -1 -42 5q-7 6 -5 28l4 22l8 23zM967 159q1 -22 -14 -30q-16 -8 -59 -8v-18q2 -68 -7 -91t-50 -21l-23 1l-28 7q-13 6 -14 16v106h-190q-21 2 -37 28q-17 26 -8 47l242 343q5 11 20 20q15 10 56 10
q28 0 34 -6t5 -17v-342h37q23 -2 30 -19q6 -17 6 -26zM772 205v-1v0v148l-109 -148h109v1z" />
    <glyph glyph-name="onehalf" unicode="&#xbd;" horiz-adv-x="964" 
d="M114 629l-24 -16q-12 -6 -29 -6q-20 0 -30 9q-10 8 -10 27v14q0 11 5 20l16 19l62 54l30 17q16 6 44 6q39 1 50 -18q11 -20 10 -77v-453q-1 -11 -15 -16l-29 -7l-21 -1q-39 -2 -50 18t-9 77v333zM499 736q10 17 27 24q18 7 35 7q25 0 41 -8t17 -27l-6 -28l-11 -26
l-265 -685q-10 -17 -34 -24q-25 -6 -39 -6q-34 -1 -41 5t-6 28l3 17l14 43zM621 1v-1v0q-19 1 -37 19q-18 17 -20 36l4 11l7 13l191 207q24 25 39 57q14 31 14 68q0 39 -14 55q-14 17 -38 16q-21 0 -44 -9l-48 -19l-14 -4l-15 -1q-22 1 -39 18q-18 17 -19 33q2 18 34 33
q33 14 74 23q42 8 69 8q80 2 128 -32q49 -35 50 -121q-2 -59 -35 -109q-32 -50 -73 -92l-118 -126h184q13 0 25 -5q13 -5 14 -20q-5 -36 -16 -48q-12 -12 -54 -11h-249v1z" />
    <glyph glyph-name="threequarters" unicode="&#xbe;" horiz-adv-x="1139" 
d="M211 541q36 0 53 22q18 22 18 59q-1 38 -21 55q-19 17 -47 16q-15 0 -35 -8l-42 -18l-19 -8l-23 -4q-22 2 -40 18t-19 33l3 5l6 8q32 24 78 38q46 15 94 15q50 0 92 -15q43 -15 70 -47t27 -84q1 -39 -18 -71q-20 -32 -59 -53q32 -18 61 -51q28 -33 30 -85q-1 -60 -32 -96
q-32 -36 -81 -53q-49 -16 -105 -16q-49 0 -92 12q-43 13 -77 36l-9 9l-3 7q1 15 19 33q18 17 40 18l22 -3l18 -8q22 -13 41 -19q19 -5 38 -4q37 -1 66 20q28 20 30 67q0 42 -22 67q-22 24 -64 25q-49 0 -63 9q-14 10 -13 29q0 7 9 23q8 17 27 19h42zM656 736q10 17 28 24
t35 7q25 0 41 -8t16 -27q0 -15 -7 -31l-12 -30l-262 -678q-10 -17 -34 -24q-25 -6 -39 -6q-33 -1 -40 5q-8 6 -6 28l5 27l11 33zM1118 159q1 -22 -14 -30q-16 -8 -60 -8v-18q2 -68 -7 -91t-50 -21l-22 1l-28 7q-12 6 -13 16v106h-192q-20 2 -37 28t-7 47l244 343h-1
q5 11 19 20q15 10 56 10q27 0 34 -6q6 -6 4 -17v-342h37q23 -2 31 -19q7 -17 6 -26zM924 205v-1v0v150l-109 -150h109v1z" />
    <glyph glyph-name="questiondown" unicode="&#xbf;" horiz-adv-x="531" 
d="M143 -115q24 5 33 0q9 -6 14 -19q12 -23 31 -35q20 -12 43 -12q40 0 66 22q26 21 27 64q-1 46 -25 80q-23 34 -55 63q-54 54 -77 102t-22 121v25q-2 15 10 23q11 9 65 9q29 0 35 -9q6 -8 5 -23v-25q1 -72 28 -113q26 -42 61 -73q39 -36 68 -78q30 -43 31 -104
q-1 -56 -29 -92q-29 -36 -76 -53q-47 -18 -103 -18q-71 0 -122 28t-72 80q-6 12 -2 18q5 6 29 11zM165 451v-1v0q1 33 19 48q18 16 43 16q28 0 51 -19q24 -18 25 -50q-1 -35 -20 -50q-19 -16 -43 -16q-29 0 -52 19q-22 19 -23 52v1z" />
    <glyph glyph-name="Agrave" unicode="&#xc0;" horiz-adv-x="621" 
d="M53 -12q-34 0 -44 15q-9 15 -2 43q85 338 218 621q26 50 48 67q22 16 37 14q15 2 37 -14q23 -17 48 -67q134 -283 218 -621q8 -28 -2 -43q-9 -15 -43 -15q-24 -1 -44 5q-21 7 -28 31l-36 131l-37 121h-226l-37 -121l-35 -131q-8 -24 -28 -31q-20 -6 -44 -5zM354 473
q-21 54 -45 104l-44 -105l-42 -115h174zM285 799v-1v0l-119 125l-1 4q1 9 17 14q16 6 36 7l31 2l23 -3q10 -4 16 -12l79 -119l9 -15q-1 -5 -13 -8l-25 -4l-20 -1l-18 1q-9 2 -15 9v1z" />
    <glyph glyph-name="Aacute" unicode="&#xc1;" horiz-adv-x="621" 
d="M53 -12q-34 0 -44 15q-9 15 -2 43q85 338 218 621q26 50 48 67q22 16 37 14q15 2 37 -14q23 -17 48 -67q134 -283 218 -621q8 -28 -2 -43q-9 -15 -43 -15q-24 -1 -44 5q-21 7 -28 31l-36 131l-37 121h-226l-37 -121l-35 -131q-8 -24 -28 -31q-20 -6 -44 -5zM354 473
q-21 54 -45 104l-44 -105l-42 -115h174zM335 936v-1v0q5 7 23 11l38 3q23 0 41 -5q17 -6 18 -16l-1 -6l-4 -7l-112 -117q-6 -7 -15 -9l-18 -2l-35 2q-17 2 -18 13l1 6l4 8l78 119v1z" />
    <glyph glyph-name="Acircumflex" unicode="&#xc2;" horiz-adv-x="621" 
d="M53 -12q-34 0 -44 15q-9 15 -2 43q85 338 218 621q26 50 48 67q22 16 37 14q15 2 37 -14q23 -17 48 -67q134 -283 218 -621q8 -28 -2 -43q-9 -15 -43 -15q-24 -1 -44 5q-21 7 -28 31l-36 131l-37 121h-226l-37 -121l-35 -131q-8 -24 -28 -31q-20 -6 -44 -5zM354 473
q-21 54 -45 104l-44 -105l-42 -115h174zM383 799v-1v0l-75 68l-75 -68q-4 -6 -10 -8q-5 -3 -17 -2l-13 1l-10 5q-27 15 -34 22t9 21l116 107l15 10l19 3l20 -3l14 -10l117 -107q15 -14 8 -21q-6 -7 -34 -22l-10 -5l-12 -1q-13 -1 -18 2l-10 8v1z" />
    <glyph glyph-name="Atilde" unicode="&#xc3;" horiz-adv-x="621" 
d="M53 -12q-34 0 -44 15q-9 15 -2 43q85 338 218 621q26 50 48 67q22 16 37 14q15 2 37 -14q23 -17 48 -67q134 -283 218 -621q8 -28 -2 -43q-9 -15 -43 -15q-24 -1 -44 5q-21 7 -28 31l-36 131l-37 121h-226l-37 -121l-35 -131q-8 -24 -28 -31q-20 -6 -44 -5zM354 473
q-21 54 -45 104l-44 -105l-42 -115h174zM376 789v-1v0q-29 0 -47 8l-32 16l-24 13l-24 6q-8 0 -15 -8q-8 -7 -16 -24q-4 -6 -11 -9q-8 -3 -20 -2q-13 0 -29 5q-17 6 -19 15l2 6l2 8q16 39 45 57t66 18q26 0 44 -7l33 -16l26 -14q12 -6 24 -6q7 0 15 7q8 8 17 25q2 6 10 8
l18 3q15 0 31 -6q17 -5 18 -13l-1 -5l-2 -6q-13 -41 -44 -60q-31 -20 -67 -19v1z" />
    <glyph glyph-name="Adieresis" unicode="&#xc4;" horiz-adv-x="621" 
d="M53 -12q-34 0 -44 15q-9 15 -2 43q85 338 218 621q26 50 48 67q22 16 37 14q15 2 37 -14q23 -17 48 -67q134 -283 218 -621q8 -28 -2 -43q-9 -15 -43 -15q-24 -1 -44 5q-21 7 -28 31l-36 131l-37 121h-226l-37 -121l-35 -131q-8 -24 -28 -31q-20 -6 -44 -5zM354 473
q-21 54 -45 104l-44 -105l-42 -115h174zM152 851q1 32 23 51t51 20q25 0 43 -16q19 -16 20 -51q-2 -30 -25 -49q-22 -18 -50 -18q-25 -1 -43 14q-19 15 -19 49zM350 852v-1v0q2 32 24 51t50 20q25 0 44 -16q18 -16 19 -51q-1 -30 -24 -49q-23 -18 -51 -18q-25 -1 -43 14
t-19 49v1z" />
    <glyph glyph-name="Aring" unicode="&#xc5;" horiz-adv-x="621" 
d="M53 -12q-34 0 -44 15q-9 15 -2 43q85 338 218 621q26 50 48 67q22 16 37 14q15 2 37 -14q23 -17 48 -67q134 -283 218 -621q8 -28 -2 -43q-9 -15 -43 -15q-24 -1 -44 5q-21 7 -28 31l-36 131l-37 121h-226l-37 -121l-35 -131q-8 -24 -28 -31q-20 -6 -44 -5zM354 473
q-21 54 -45 104l-44 -105l-42 -115h174zM313 788q-57 1 -86 30q-29 28 -29 67q0 37 28 66q29 29 86 31q58 -2 86 -31q29 -29 29 -66q0 -39 -28 -68q-29 -28 -86 -29zM275 885v-1v0q1 -26 12 -38q10 -12 25 -12t26 13q11 12 11 38t-11 38t-26 12q-14 0 -25 -13
q-11 -12 -12 -38v1z" />
    <glyph glyph-name="AE" unicode="&#xc6;" horiz-adv-x="968" 
d="M569 345v-261q27 -10 61 -12l62 -2q39 0 76 8q38 8 75 20l11 3l11 1q24 -1 40 -21q17 -19 18 -36q-1 -4 -12 -9l-24 -12q-42 -21 -100 -29t-105 -7l-56 1q-39 1 -81 7q-43 6 -74 19q-30 14 -32 38v219h-178l-73 -121l-75 -131q-14 -23 -35 -30q-21 -6 -44 -5q-24 0 -35 5
q-10 5 -10 15l4 15l12 24q94 171 193 324q99 154 214 297q48 57 116 71q67 15 154 12q47 1 104 -7t98 -28l21 -10q16 -7 18 -12q-1 -17 -18 -36q-16 -19 -40 -21l-12 1l-11 3q-42 15 -88 23t-89 8l-48 -4q-24 -3 -48 -12v-226h271l23 -2q10 -2 10 -13q-5 -43 -15 -55
q-10 -13 -46 -12h-243zM313 355v-1v0h126v185l-63 -91l-63 -94v1z" />
    <glyph glyph-name="Ccedilla" unicode="&#xc7;" horiz-adv-x="628" 
d="M292 -41v-1v0l15 34q-96 16 -154 73q-59 58 -84 138q-26 81 -26 166q-1 93 31 179q31 87 101 143q71 56 189 57q59 1 111 -11q53 -11 103 -46q16 -10 16 -16q-1 -17 -19 -35q-17 -19 -41 -20q-16 0 -27 4l-23 12q-28 15 -58 23q-31 8 -63 8q-69 -2 -110 -46
q-40 -45 -58 -113q-17 -68 -17 -139q0 -72 17 -140q18 -68 58 -113q41 -45 110 -46q32 0 63 8q31 9 64 25l20 9l24 5q24 -2 41 -20q18 -19 19 -36l-4 -6l-12 -10q-45 -32 -92 -44q-47 -11 -99 -12l-2 -7q40 -6 62 -27q23 -21 23 -48q-2 -49 -42 -68t-91 -18l-26 2
q-13 4 -14 18q0 8 10 11l30 7q15 2 27 13t13 29q0 12 -14 21q-13 9 -35 9q-26 0 -36 3q-10 4 0 24v1z" />
    <glyph glyph-name="Egrave" unicode="&#xc8;" horiz-adv-x="604" 
d="M206 345v-261q27 -10 60 -12l63 -2q39 0 76 6t76 18l21 3q23 -1 40 -21q16 -19 17 -36l-11 -9l-23 -12q-44 -22 -102 -27t-105 -4q-48 0 -95 6q-46 5 -86 15q-28 6 -44 15q-17 9 -17 29v630q-1 11 3 18t17 14q50 19 106 26q56 8 116 7q47 1 104 -6q56 -6 98 -24l22 -10
q15 -8 17 -12q-1 -17 -17 -36q-17 -19 -40 -21l-9 1l-9 2q-41 12 -79 18q-38 7 -76 7l-63 -2q-33 -3 -60 -13v-225h274q18 -2 24 -19l6 -25q1 -24 -21 -31q-23 -8 -88 -7h-195zM295 799v-1v0l-119 125l-1 4q1 9 17 14q16 6 36 7l31 2l23 -3q10 -4 16 -12l79 -119l9 -15
q-1 -5 -13 -8l-25 -4l-19 -1l-19 1q-9 2 -15 9v1z" />
    <glyph glyph-name="Eacute" unicode="&#xc9;" horiz-adv-x="604" 
d="M206 345v-261q27 -10 60 -12l63 -2q39 0 76 6t76 18l21 3q23 -1 40 -21q16 -19 17 -36l-11 -9l-23 -12q-44 -22 -102 -27t-105 -4q-48 0 -95 6q-46 5 -86 15q-28 6 -44 15q-17 9 -17 29v630q-1 11 3 18t17 14q50 19 106 26q56 8 116 7q47 1 104 -6q56 -6 98 -24l22 -10
q15 -8 17 -12q-1 -17 -17 -36q-17 -19 -40 -21l-9 1l-9 2q-41 12 -79 18q-38 7 -76 7l-63 -2q-33 -3 -60 -13v-225h274q18 -2 24 -19l6 -25q1 -24 -21 -31q-23 -8 -88 -7h-195zM345 936v-1v0q5 7 23 11l39 3q23 0 40 -5q17 -6 18 -16l-1 -6l-4 -7l-112 -117q-6 -7 -14 -9
l-19 -2l-34 2q-18 2 -19 13l1 6l4 8l78 119v1z" />
    <glyph glyph-name="Ecircumflex" unicode="&#xca;" horiz-adv-x="604" 
d="M206 345v-261q27 -10 60 -12l63 -2q39 0 76 6t76 18l21 3q23 -1 40 -21q16 -19 17 -36l-11 -9l-23 -12q-44 -22 -102 -27t-105 -4q-48 0 -95 6q-46 5 -86 15q-28 6 -44 15q-17 9 -17 29v630q-1 11 3 18t17 14q50 19 106 26q56 8 116 7q47 1 104 -6q56 -6 98 -24l22 -10
q15 -8 17 -12q-1 -17 -17 -36q-17 -19 -40 -21l-9 1l-9 2q-41 12 -79 18q-38 7 -76 7l-63 -2q-33 -3 -60 -13v-225h274q18 -2 24 -19l6 -25q1 -24 -21 -31q-23 -8 -88 -7h-195zM393 799v-1v0l-75 68l-74 -68l-10 -8q-5 -3 -18 -2l-12 1l-10 5q-28 15 -35 22q-6 7 9 21
l117 107q6 7 14 10l19 3l20 -3q8 -3 14 -10l117 -107q15 -14 9 -21q-7 -7 -35 -22l-10 -5l-12 -1q-13 -1 -18 2l-10 8v1z" />
    <glyph glyph-name="Edieresis" unicode="&#xcb;" horiz-adv-x="604" 
d="M206 345v-261q27 -10 60 -12l63 -2q39 0 76 6t76 18l21 3q23 -1 40 -21q16 -19 17 -36l-11 -9l-23 -12q-44 -22 -102 -27t-105 -4q-48 0 -95 6q-46 5 -86 15q-28 6 -44 15q-17 9 -17 29v630q-1 11 3 18t17 14q50 19 106 26q56 8 116 7q47 1 104 -6q56 -6 98 -24l22 -10
q15 -8 17 -12q-1 -17 -17 -36q-17 -19 -40 -21l-9 1l-9 2q-41 12 -79 18q-38 7 -76 7l-63 -2q-33 -3 -60 -13v-225h274q18 -2 24 -19l6 -25q1 -24 -21 -31q-23 -8 -88 -7h-195zM162 851q1 32 23 51q23 19 52 20q24 0 43 -16q18 -16 19 -51q-1 -30 -24 -49q-23 -18 -51 -18
q-25 -1 -43 14t-19 49zM361 852v-1v0q1 32 23 51t50 20q26 0 44 -16q19 -16 20 -51q-2 -30 -25 -49q-23 -18 -51 -18q-25 -1 -43 14t-18 49v1z" />
    <glyph glyph-name="Igrave" unicode="&#xcc;" horiz-adv-x="283" 
d="M206 106q1 -71 -10 -95q-11 -25 -51 -23l-22 1l-31 6q-14 4 -15 11v724q1 8 15 12l31 5l22 1q40 2 51 -22q11 -25 10 -95v-525zM114 799v-1v0l-119 125l-1 4q1 9 17 14q16 6 35 7l32 2l23 -3q10 -4 16 -12l79 -119l9 -15q-1 -5 -13 -8l-25 -4l-20 -1l-18 1q-9 2 -15 9v1z
" />
    <glyph glyph-name="Iacute" unicode="&#xcd;" horiz-adv-x="273" 
d="M206 106q1 -71 -10 -95q-11 -25 -51 -23l-22 1l-31 6q-14 4 -15 11v724q1 8 15 12l31 5l22 1q40 2 51 -22q11 -25 10 -95v-525zM164 936v-1v0q5 7 23 11l38 3q23 0 41 -5q17 -6 18 -16l-1 -6l-4 -7l-112 -117q-6 -7 -15 -9l-18 -2l-35 2q-17 2 -18 13l1 6l4 8l78 119v1z
" />
    <glyph glyph-name="Icircumflex" unicode="&#xce;" horiz-adv-x="268" 
d="M206 106q1 -71 -10 -95q-11 -25 -51 -23l-22 1l-31 6q-14 4 -15 11v724q1 8 15 12l31 5l22 1q40 2 51 -22q11 -25 10 -95v-525zM212 799v-1v0l-75 68l-75 -68q-4 -6 -10 -8q-5 -3 -17 -2l-13 1l-10 5q-27 15 -34 22t9 21l116 107l15 10l19 3l20 -3l14 -10l117 -107
q15 -14 8 -21q-6 -7 -34 -22l-10 -5l-12 -1q-13 -1 -18 2l-10 8v1z" />
    <glyph glyph-name="Idieresis" unicode="&#xcf;" horiz-adv-x="279" 
d="M206 106q1 -71 -10 -95q-11 -25 -51 -23l-22 1l-31 6q-14 4 -15 11v724q1 8 15 12l31 5l22 1q40 2 51 -22q11 -25 10 -95v-525zM-19 851q1 32 23 51t51 20q25 0 43 -16q19 -16 20 -51q-2 -30 -25 -49q-22 -18 -50 -18q-25 -1 -43 14q-19 15 -19 49zM179 852v-1v0
q2 32 24 51t50 20q25 0 44 -16q18 -16 19 -51q-1 -30 -24 -49q-23 -18 -51 -18q-25 -1 -43 14t-19 49v1z" />
    <glyph glyph-name="Ntilde" unicode="&#xd1;" horiz-adv-x="749" 
d="M611 748q42 3 52 -25q10 -29 9 -115v-560q-1 -31 -12 -46q-12 -15 -33 -15q-18 0 -38 13q-20 14 -38 38l-342 456v-366q1 -86 -11 -114q-11 -28 -52 -26l-22 1l-29 5q-14 4 -15 11v707q0 19 9 28t26 8q15 0 29 -10q14 -9 25 -23l373 -484v500q1 7 16 11l31 5zM442 789v-1
v0q-29 0 -46 8l-32 16l-24 13q-12 5 -25 6q-7 0 -15 -8q-7 -7 -15 -24q-4 -6 -12 -9t-19 -2q-13 0 -30 5q-17 6 -18 15l1 6l3 8q16 39 45 57t66 18q26 0 44 -7l32 -16l26 -14q12 -6 24 -6q8 0 16 7l16 25q3 6 10 8l19 3q14 0 31 -6q17 -5 18 -13l-1 -5l-2 -6
q-13 -41 -44 -60q-31 -20 -68 -19v1z" />
    <glyph glyph-name="Ograve" unicode="&#xd2;" 
d="M43 367q0 99 34 186q34 86 107 140t189 55q115 -1 187 -55q73 -54 107 -140q35 -87 34 -186q1 -97 -33 -183t-107 -140q-72 -54 -188 -56q-117 2 -190 56q-72 54 -106 140t-34 183zM373 667q-71 -2 -114 -45t-62 -111t-19 -144t19 -143q19 -68 62 -110q43 -43 114 -44
q71 1 113 44q43 42 62 110q19 67 18 143q1 76 -18 144t-62 111q-42 43 -113 45zM345 799v-1v0l-119 125l-1 4q1 9 17 14q16 6 36 7l31 2l23 -3q10 -4 16 -12l79 -119l9 -15q-1 -5 -12 -8l-26 -4l-19 -1l-19 1q-9 2 -15 9v1z" />
    <glyph glyph-name="Oacute" unicode="&#xd3;" 
d="M43 367q0 99 34 186q34 86 107 140t189 55q115 -1 187 -55q73 -54 107 -140q35 -87 34 -186q1 -97 -33 -183t-107 -140q-72 -54 -188 -56q-117 2 -190 56q-72 54 -106 140t-34 183zM373 667q-71 -2 -114 -45t-62 -111t-19 -144t19 -143q19 -68 62 -110q43 -43 114 -44
q71 1 113 44q43 42 62 110q19 67 18 143q1 76 -18 144t-62 111q-42 43 -113 45zM395 936v-1v0q6 7 23 11l39 3q23 0 40 -5q17 -6 18 -16l-1 -6l-4 -7l-112 -117q-6 -7 -14 -9l-18 -2l-35 2q-17 2 -19 13l1 6l4 8l78 119v1z" />
    <glyph glyph-name="Ocircumflex" unicode="&#xd4;" 
d="M43 367q0 99 34 186q34 86 107 140t189 55q115 -1 187 -55q73 -54 107 -140q35 -87 34 -186q1 -97 -33 -183t-107 -140q-72 -54 -188 -56q-117 2 -190 56q-72 54 -106 140t-34 183zM373 667q-71 -2 -114 -45t-62 -111t-19 -144t19 -143q19 -68 62 -110q43 -43 114 -44
q71 1 113 44q43 42 62 110q19 67 18 143q1 76 -18 144t-62 111q-42 43 -113 45zM443 799v-1v0l-74 68l-75 -68l-10 -8q-5 -3 -18 -2l-12 1l-10 5q-28 15 -35 22q-6 7 9 21l117 107q6 7 14 10l20 3l19 -3q8 -3 14 -10l117 -107q15 -14 9 -21q-7 -7 -34 -22l-11 -5l-12 -1
q-12 -1 -18 2l-10 8v1z" />
    <glyph glyph-name="Otilde" unicode="&#xd5;" 
d="M43 367q0 99 34 186q34 86 107 140t189 55q115 -1 187 -55q73 -54 107 -140q35 -87 34 -186q1 -97 -33 -183t-107 -140q-72 -54 -188 -56q-117 2 -190 56q-72 54 -106 140t-34 183zM373 667q-71 -2 -114 -45t-62 -111t-19 -144t19 -143q19 -68 62 -110q43 -43 114 -44
q71 1 113 44q43 42 62 110q19 67 18 143q1 76 -18 144t-62 111q-42 43 -113 45zM436 789v-1v0q-29 0 -46 8l-33 16l-23 13q-12 5 -25 6q-7 0 -15 -8q-7 -7 -15 -24q-4 -6 -12 -9t-19 -2q-13 0 -30 5q-17 6 -18 15l1 6l3 8q16 39 45 57t65 18q27 0 45 -7l32 -16l26 -14
q12 -6 24 -6q8 0 15 7q8 8 17 25q3 6 10 8l19 3q14 0 31 -6q16 -5 18 -13l-1 -5l-2 -6q-13 -41 -44 -60q-31 -20 -68 -19v1z" />
    <glyph glyph-name="Odieresis" unicode="&#xd6;" 
d="M43 367q0 99 34 186q34 86 107 140t189 55q115 -1 187 -55q73 -54 107 -140q35 -87 34 -186q1 -97 -33 -183t-107 -140q-72 -54 -188 -56q-117 2 -190 56q-72 54 -106 140t-34 183zM373 667q-71 -2 -114 -45t-62 -111t-19 -144t19 -143q19 -68 62 -110q43 -43 114 -44
q71 1 113 44q43 42 62 110q19 67 18 143q1 76 -18 144t-62 111q-42 43 -113 45zM212 851q1 32 24 51q22 19 51 20q24 0 43 -16q18 -16 19 -51q-1 -30 -24 -49q-23 -18 -51 -18q-25 -1 -43 14t-19 49zM411 852v-1v0q1 32 23 51t50 20q26 0 44 -16q19 -16 20 -51
q-2 -30 -25 -49q-23 -18 -51 -18q-25 -1 -43 14q-17 15 -18 49v1z" />
    <glyph glyph-name="multiply" unicode="&#xd7;" horiz-adv-x="645" 
d="M323 212v-1v0l-188 -187l-61 64l185 185l-184 187l61 63l187 -186l187 185l61 -62l-185 -187l184 -185l-62 -62l-185 185v1z" />
    <glyph glyph-name="Oslash" unicode="&#xd8;" 
d="M43 367q0 99 34 186q34 86 107 140t189 55l43 -2l41 -7l3 8q8 14 23 19q16 5 31 5q20 0 40 -5t22 -20l-5 -24l-8 -21l-3 -8q73 -54 107 -140q35 -87 34 -186q1 -97 -33 -183t-107 -140q-72 -54 -188 -56l-43 2l-40 7l-4 -10q-8 -15 -30 -20l-36 -5q-23 0 -37 4
q-13 5 -13 20q0 13 5 28l10 28q-74 54 -108 141q-34 86 -34 184zM373 667q-71 -2 -114 -45t-62 -111t-19 -144q0 -60 12 -116t38 -99l197 506l-25 7zM566 368v-1v0q1 59 -11 116q-12 56 -38 100l-197 -506l25 -6l28 -1q71 1 113 44q43 42 62 110q19 67 18 143v1z" />
    <glyph glyph-name="Ugrave" unicode="&#xd9;" horiz-adv-x="726" 
d="M592 748q42 3 51 -26q9 -28 7 -114v-344q0 -132 -75 -204q-74 -71 -214 -72q-96 1 -159 37q-64 37 -95 99q-31 61 -31 137v470q1 7 15 11l29 5l22 1q42 3 51 -26q9 -28 8 -114v-339q0 -98 40 -149q40 -50 120 -50t121 52q42 52 42 148v461q1 7 15 11l30 5zM335 799v-1v0
l-119 125l-1 4q1 9 17 14q16 6 36 7l31 2l23 -3q10 -4 16 -12l79 -119l9 -15q-1 -5 -13 -8l-25 -4l-19 -1l-19 1q-9 2 -15 9v1z" />
    <glyph glyph-name="Uacute" unicode="&#xda;" horiz-adv-x="726" 
d="M592 748q42 3 51 -26q9 -28 7 -114v-344q0 -132 -75 -204q-74 -71 -214 -72q-96 1 -159 37q-64 37 -95 99q-31 61 -31 137v470q1 7 15 11l29 5l22 1q42 3 51 -26q9 -28 8 -114v-339q0 -98 40 -149q40 -50 120 -50t121 52q42 52 42 148v461q1 7 15 11l30 5zM385 936v-1v0
q5 7 23 11l38 3q24 0 41 -5q17 -6 18 -16l-1 -6l-4 -7l-112 -117q-6 -7 -14 -9l-19 -2l-34 2q-18 2 -19 13l1 6l4 8l78 119v1z" />
    <glyph glyph-name="Ucircumflex" unicode="&#xdb;" horiz-adv-x="726" 
d="M592 748q42 3 51 -26q9 -28 7 -114v-344q0 -132 -75 -204q-74 -71 -214 -72q-96 1 -159 37q-64 37 -95 99q-31 61 -31 137v470q1 7 15 11l29 5l22 1q42 3 51 -26q9 -28 8 -114v-339q0 -98 40 -149q40 -50 120 -50t121 52q42 52 42 148v461q1 7 15 11l30 5zM433 799v-1v0
l-75 68l-74 -68l-10 -8q-6 -3 -18 -2l-12 1l-11 5q-27 15 -34 22q-6 7 9 21l117 107q6 7 14 10l19 3l20 -3q8 -3 14 -10l117 -107q15 -14 9 -21q-7 -7 -35 -22l-10 -5l-12 -1q-13 -1 -18 2l-10 8v1z" />
    <glyph glyph-name="Udieresis" unicode="&#xdc;" horiz-adv-x="726" 
d="M592 748q42 3 51 -26q9 -28 7 -114v-344q0 -132 -75 -204q-74 -71 -214 -72q-96 1 -159 37q-64 37 -95 99q-31 61 -31 137v470q1 7 15 11l29 5l22 1q42 3 51 -26q9 -28 8 -114v-339q0 -98 40 -149q40 -50 120 -50t121 52q42 52 42 148v461q1 7 15 11l30 5zM202 851
q1 32 23 51q23 19 51 20q25 0 44 -16q18 -16 19 -51q-2 -30 -24 -49q-23 -18 -51 -18q-25 -1 -43 14t-19 49zM400 852v-1v0q2 32 24 51t50 20q26 0 44 -16q19 -16 20 -51q-2 -30 -25 -49q-23 -18 -51 -18q-25 -1 -43 14t-19 49v1z" />
    <glyph glyph-name="Yacute" unicode="&#xdd;" horiz-adv-x="571" 
d="M266 -11l-30 5q-14 4 -15 11v302l-4 23q-3 13 -8 20l-104 175q-49 87 -93 176q-10 26 4 37t35 10q27 1 47 -5q20 -5 31 -23l86 -159q39 -72 71 -120q33 48 72 120l86 163q8 16 30 20q21 5 46 4q23 1 36 -10q14 -10 3 -37q-38 -79 -87 -166t-111 -185l-7 -19l-4 -24v-179
q2 -86 -10 -114q-11 -28 -52 -26zM311 936v-1v0q6 7 23 11l39 3q23 0 40 -5q17 -6 18 -16l-1 -6l-4 -7l-112 -117q-6 -7 -14 -9l-18 -2l-35 2q-17 2 -19 13l1 6l4 8l78 119v1z" />
    <glyph glyph-name="Thorn" unicode="&#xde;" horiz-adv-x="625" 
d="M121 -306l-30 5q-14 4 -15 11v1019q1 7 15 11l30 5l21 1q42 3 54 -26q11 -28 10 -114v-158l41 4l43 2q74 0 141 -20q66 -20 107 -70q42 -49 44 -135q-2 -115 -80 -176t-212 -61l-43 1l-41 4v-164q1 -86 -10 -114q-12 -28 -54 -26zM292 75v-1v0q90 1 123 44t32 107
q0 71 -37 108q-38 38 -118 39l-44 -3l-42 -11v-270l43 -11l43 -3v1z" />
    <glyph glyph-name="germandbls" unicode="&#xdf;" horiz-adv-x="639" 
d="M216 58v-1v0q1 9 11 11l24 2h36q44 -1 82 9t62 42q23 32 24 96q-1 59 -37 93q-37 33 -101 34h-40q-35 -1 -44 12q-10 13 -17 57q1 9 11 11l24 2h31q68 0 101 32q34 32 34 92q-2 66 -42 91t-94 24l-41 -2q-20 -1 -39 -6v-553q1 -69 -10 -94q-11 -24 -51 -22l-22 1l-31 6
q-14 4 -15 11v674q-1 13 6 22q7 8 33 18q33 12 75 19t87 7q76 1 139 -18q63 -18 101 -61t39 -117q-1 -48 -29 -87q-29 -39 -76 -64q66 -23 104 -69t39 -113q-2 -91 -45 -141q-44 -50 -113 -70q-70 -19 -147 -18h-8q-35 -2 -45 11t-16 55v3v1z" />
    <glyph glyph-name="agrave" unicode="&#xe0;" horiz-adv-x="578" 
d="M480 -9l-22 -2q-12 -1 -11 -1q-25 -1 -40 10q-15 10 -16 42v86q-9 -32 -30 -63q-22 -32 -62 -53q-41 -21 -109 -22q-85 2 -125 50q-41 47 -40 115q1 73 46 131t116 91q71 34 151 35l27 -1l26 -2v19q1 61 -22 90t-77 29q-27 -1 -51 -8l-41 -16l-22 -8q-11 -4 -25 -4
q-25 2 -41 22q-15 20 -16 36q2 17 35 30q33 14 78 22q45 7 83 8q55 1 106 -11q51 -11 84 -54t34 -134v-295l2 -67l4 -58q1 -4 -3 -8t-22 -7zM154 146q1 -38 20 -57t35 -19q44 2 85 44q42 43 69 99t28 98v10l-28 4h-24q-46 -1 -88 -23t-69 -62q-28 -40 -28 -94zM264 682v-1v0
l-119 125l-1 4q1 10 17 15l36 7l31 1q13 1 23 -3t16 -12l79 -119l9 -15q0 -5 -12 -8l-26 -4l-19 -1l-19 1q-9 2 -15 9v1z" />
    <glyph glyph-name="aacute" unicode="&#xe1;" horiz-adv-x="578" 
d="M480 -9l-21 -2l-13 -1q-24 -1 -39 10q-15 10 -16 42v86q-9 -32 -30 -63q-22 -32 -62 -53q-41 -21 -109 -22q-85 2 -125 50q-41 47 -40 115q1 73 46 131t116 91q71 34 151 35l27 -1l26 -2v19q1 61 -22 90t-77 29q-27 -1 -51 -8l-41 -16l-22 -8q-11 -4 -25 -4q-25 2 -41 22
q-15 20 -16 36q2 17 35 30q33 14 78 22q45 7 83 8q55 1 106 -11q51 -11 84 -54t34 -134v-295l2 -67l4 -58q1 -4 -3 -8t-22 -7zM154 146q1 -38 20 -57t35 -19q44 2 85 44q42 43 69 99t28 98v10l-28 4h-24q-46 -1 -88 -23t-69 -62q-28 -40 -28 -94zM314 819v-1v0q6 8 23 11
q18 4 39 3q23 0 40 -5t18 -16l-1 -6l-4 -6l-112 -118q-6 -7 -14 -9l-18 -1l-35 1q-17 2 -19 13l1 6l5 8l77 119v1z" />
    <glyph glyph-name="acircumflex" unicode="&#xe2;" horiz-adv-x="578" 
d="M480 -9l-21 -2l-13 -1q-24 -1 -39 10q-15 10 -16 42v86q-9 -32 -30 -63q-22 -32 -62 -53q-41 -21 -109 -22q-85 2 -125 50q-41 47 -40 115q1 73 46 131t116 91q71 34 151 35l27 -1l26 -2v19q1 61 -22 90t-77 29q-27 -1 -51 -8l-41 -16l-22 -8q-11 -4 -25 -4q-25 2 -41 22
q-15 20 -16 36q2 17 35 30q33 14 78 22q45 7 83 8q55 1 106 -11q51 -11 84 -54t34 -134v-295l2 -67l4 -58q1 -4 -3 -8t-22 -7zM154 146q1 -38 20 -57t35 -19q44 2 85 44q42 43 69 99t28 98v10l-28 4h-24q-46 -1 -88 -23t-69 -62q-28 -40 -28 -94zM363 682v-1v0l-75 69
l-75 -69l-10 -8l-18 -2l-12 1l-10 5q-28 15 -35 22q-6 7 9 21l117 107l14 10q8 4 20 4t19 -4l15 -10l116 -107q16 -14 9 -21t-34 -22l-10 -5l-13 -1l-17 2l-10 8v1z" />
    <glyph glyph-name="atilde" unicode="&#xe3;" horiz-adv-x="578" 
d="M480 -9l-22 -2q-12 -1 -11 -1q-25 -1 -40 10q-15 10 -16 42v86q-9 -32 -30 -63q-22 -32 -62 -53q-41 -21 -109 -22q-85 2 -125 50q-41 47 -40 115q1 73 46 131t116 91q71 34 151 35l27 -1l26 -2v19q1 61 -22 90t-77 29q-27 -1 -51 -8l-41 -16l-22 -8q-11 -4 -25 -4
q-25 2 -41 22q-15 20 -16 36q2 17 35 30q33 14 78 22q45 7 83 8q55 1 106 -11q51 -11 84 -54t34 -134v-295l2 -67l4 -58q1 -4 -3 -8t-22 -7zM154 146q1 -38 20 -57t35 -19q44 2 85 44q42 43 69 99t28 98v10l-28 4h-24q-46 -1 -88 -23t-69 -62q-28 -40 -28 -94zM355 672v-1v0
q-29 0 -46 8l-33 16l-23 13q-12 6 -25 6q-7 0 -15 -7l-15 -25q-4 -6 -12 -9l-19 -2q-13 0 -30 5q-17 6 -18 15l1 6l3 9q16 38 45 56t65 18q27 0 45 -7q18 -6 32 -15l26 -14q12 -6 24 -7q8 0 16 8l16 24q3 6 10 9l19 2q14 0 31 -5q17 -6 18 -14l-1 -5l-2 -5q-13 -42 -44 -61
t-68 -19v1z" />
    <glyph glyph-name="adieresis" unicode="&#xe4;" horiz-adv-x="578" 
d="M480 -9l-21 -2l-13 -1q-24 -1 -39 10q-15 10 -16 42v86q-9 -32 -30 -63q-22 -32 -62 -53q-41 -21 -109 -22q-85 2 -125 50q-41 47 -40 115q1 73 46 131t116 91q71 34 151 35l27 -1l26 -2v19q1 61 -22 90t-77 29q-27 -1 -51 -8l-41 -16l-22 -8q-11 -4 -25 -4q-25 2 -41 22
q-15 20 -16 36q2 17 35 30q33 14 78 22q45 7 83 8q55 1 106 -11q51 -11 84 -54t34 -134v-295l2 -67l4 -58q1 -4 -3 -8t-22 -7zM154 146q1 -38 20 -57t35 -19q44 2 85 44q42 43 69 99t28 98v10l-28 4h-24q-46 -1 -88 -23t-69 -62q-28 -40 -28 -94zM131 734q1 32 24 51
q22 19 51 20q25 0 43 -16t19 -51q-1 -30 -24 -48q-23 -19 -50 -19q-26 0 -44 15t-19 48zM330 735v-1v0q1 32 23 51t50 20q26 0 44 -16q19 -16 20 -51q-1 -30 -25 -48q-23 -19 -51 -19q-24 0 -42 15t-19 48v1z" />
    <glyph glyph-name="aring" unicode="&#xe5;" horiz-adv-x="578" 
d="M480 -9l-22 -2q-12 -1 -11 -1q-25 -1 -40 10q-15 10 -16 42v86q-9 -32 -30 -63q-22 -32 -62 -53q-41 -21 -109 -22q-85 2 -125 50q-41 47 -40 115q1 73 46 131t116 91q71 34 151 35l27 -1l26 -2v19q1 61 -22 90t-77 29q-27 -1 -51 -8l-41 -16l-22 -8q-11 -4 -25 -4
q-25 2 -41 22q-15 20 -16 36q2 17 35 30q33 14 78 22q45 7 83 8q55 1 106 -11q51 -11 84 -54t34 -134v-295l2 -67l4 -58q1 -4 -3 -8t-22 -7zM154 146q1 -38 20 -57t35 -19q44 2 85 44q42 43 69 99t28 98v10l-28 4h-24q-46 -1 -88 -23t-69 -62q-28 -40 -28 -94zM293 671
q-58 1 -87 30t-29 67t29 67q28 29 86 30q57 -1 86 -30q28 -29 28 -67q0 -39 -28 -67q-28 -29 -85 -30zM255 768v-1v0q0 -25 11 -37t26 -12q14 0 25 12t12 38q-1 26 -11 38q-11 12 -26 12t-26 -12q-11 -13 -11 -39v1z" />
    <glyph glyph-name="ae" unicode="&#xe6;" horiz-adv-x="906" 
d="M838 65q6 -11 6 -18q-2 -16 -34 -30q-33 -13 -78 -21t-84 -8q-89 2 -145 44q-56 43 -82 105l-35 -48l-28 -30q-33 -32 -75 -51q-42 -20 -92 -20q-85 2 -126 50q-41 47 -40 115q1 73 46 131t116 91q71 34 151 35l28 -1l25 -2v19q1 61 -21 90q-23 29 -78 29q-27 -1 -51 -8
l-40 -16l-22 -8q-12 -4 -26 -4q-24 2 -40 22t-17 36q2 17 35 30q33 14 78 22q45 7 83 8q54 1 104 -10q51 -11 83 -51q28 29 69 45q42 15 100 16q84 -1 133 -24q49 -22 70 -57t20 -73q0 -48 -37 -98q-36 -51 -99 -93q-39 -25 -91 -41q-53 -15 -115 -26q11 -62 39 -103t80 -42
q27 0 51 8l41 15l22 9l25 3q15 0 25 -4q9 -5 14 -13zM154 146q1 -38 20 -57t35 -19q43 2 85 44t71 96q28 54 27 92l-1 23h-52q-45 -1 -87 -23t-70 -62q-27 -40 -28 -94zM521 308v-1v0q111 27 167 68q55 42 54 87q1 31 -21 56q-23 25 -73 27q-48 -1 -76 -35q-28 -35 -40 -88
q-11 -54 -11 -115v1z" />
    <glyph glyph-name="ccedilla" unicode="&#xe7;" horiz-adv-x="522" 
d="M238 -38v-1v0l14 31q-76 14 -121 61t-64 113q-19 67 -19 141q0 81 23 154q24 72 80 118t152 48q59 -1 103 -13t77 -30q16 -12 11 -30q-5 -19 -12 -29q-9 -16 -40 -16l-25 3l-22 9l-40 16q-23 7 -52 8q-48 -1 -76 -35t-40 -88q-11 -54 -11 -115q0 -60 11 -114
q12 -54 40 -88t76 -35q27 0 51 8l41 15l21 9l26 3q16 1 26 -4q10 -4 15 -14q7 -10 11 -28q4 -17 -11 -28q-28 -17 -66 -28q-37 -11 -85 -14l-1 -4q40 -6 62 -27t23 -48q-2 -49 -42 -68t-91 -18q-14 -1 -26 2q-13 4 -14 18q0 8 10 11l30 7q15 2 27 13t13 29q-1 12 -14 21
q-14 9 -36 10q-25 -1 -35 2q-10 4 0 24v1z" />
    <glyph glyph-name="egrave" unicode="&#xe8;" horiz-adv-x="552" 
d="M486 65l4 -18q-1 -16 -34 -30q-32 -13 -77 -21t-83 -8q-97 1 -154 48q-56 46 -80 119t-23 154q0 75 27 148q26 72 84 120q57 48 147 50q57 -1 107 -20t82 -55q31 -36 32 -86q-1 -68 -40 -110t-100 -61q-60 -20 -127 -19l-41 1l-41 4q2 -55 15 -103t40 -78t72 -30
q26 0 50 8l41 15l22 9l25 3q29 0 40 -17zM299 545q-59 -1 -87 -50q-28 -48 -39 -128l40 -7l35 -3q71 1 106 30q34 29 34 78q-1 34 -27 56q-25 23 -62 24zM267 682v-1v0l-119 125l-1 4q1 10 17 15l36 7l31 1q14 1 23 -3q10 -4 16 -12l79 -119l9 -15q0 -5 -12 -8l-26 -4
l-19 -1l-19 1q-8 2 -15 9v1z" />
    <glyph glyph-name="eacute" unicode="&#xe9;" horiz-adv-x="552" 
d="M486 65l4 -18q-1 -16 -34 -30q-32 -13 -77 -21t-83 -8q-97 1 -154 48q-56 46 -80 119t-23 154q0 75 27 148q26 72 84 120q57 48 147 50q57 -1 107 -20t82 -55q31 -36 32 -86q-1 -68 -40 -110t-100 -61q-60 -20 -127 -19l-41 1l-41 4q2 -55 15 -103t40 -78t72 -30
q26 0 50 8l41 15l22 9l25 3q29 0 40 -17zM299 545q-59 -1 -87 -50q-28 -48 -39 -128l40 -7l35 -3q71 1 106 30q34 29 34 78q-1 34 -27 56q-25 23 -62 24zM317 819v-1v0q6 8 23 11q18 4 39 3q23 0 40 -5t18 -16l-1 -6l-4 -6l-111 -118q-7 -7 -15 -9l-18 -1l-35 1
q-17 2 -19 13l2 6l4 8l77 119v1z" />
    <glyph glyph-name="ecircumflex" unicode="&#xea;" horiz-adv-x="552" 
d="M486 65l4 -18q-1 -16 -34 -30q-32 -13 -77 -21t-83 -8q-97 1 -154 48q-56 46 -80 119t-23 154q0 75 27 148q26 72 84 120q57 48 147 50q57 -1 107 -20t82 -55q31 -36 32 -86q-1 -68 -40 -110t-100 -61q-60 -20 -127 -19l-41 1l-41 4q2 -55 15 -103t40 -78t72 -30
q26 0 50 8l41 15l22 9l25 3q29 0 40 -17zM299 545q-59 -1 -87 -50q-28 -48 -39 -128l40 -7l35 -3q71 1 106 30q34 29 34 78q-1 34 -27 56q-25 23 -62 24zM366 682v-1v0l-75 69l-75 -69l-10 -8l-18 -2l-12 1l-10 5q-28 15 -34 22q-7 7 8 21l117 107l14 10q8 4 20 4t19 -4
l15 -10l116 -107q16 -14 9 -21t-34 -22l-10 -5l-13 -1l-17 2l-10 8v1z" />
    <glyph glyph-name="edieresis" unicode="&#xeb;" horiz-adv-x="552" 
d="M486 65l4 -18q-1 -16 -34 -30q-32 -13 -77 -21t-83 -8q-97 1 -154 48q-56 46 -80 119t-23 154q0 75 27 148q26 72 84 120q57 48 147 50q57 -1 107 -20t82 -55q31 -36 32 -86q-1 -68 -40 -110t-100 -61q-60 -20 -127 -19l-41 1l-41 4q2 -55 15 -103t40 -78t72 -30
q26 0 50 8l41 15l22 9l25 3q29 0 40 -17zM299 545q-59 -1 -87 -50q-28 -48 -39 -128l40 -7l35 -3q71 1 106 30q34 29 34 78q-1 34 -27 56q-25 23 -62 24zM134 734q1 32 24 51q22 19 51 20q25 0 43 -16t19 -51q-1 -30 -24 -48q-23 -19 -50 -19q-26 0 -44 15t-19 48zM333 735
v-1v0q1 32 23 51t51 20q25 0 44 -16q18 -16 19 -51q-1 -30 -24 -48q-24 -19 -52 -19q-24 0 -42 15t-19 48v1z" />
    <glyph glyph-name="igrave" unicode="&#xec;" horiz-adv-x="280" 
d="M133 627q43 2 52 -26q9 -29 7 -115v-335q0 -39 4 -60q3 -21 12 -21q6 0 10 4l9 8l9 3l9 1q19 -2 34 -22q15 -19 16 -34q-2 -7 -29 -24q-28 -16 -64 -18q-63 0 -91 25q-29 24 -37 67q-7 43 -6 99v430q1 7 14 11l30 5zM102 682v-1v0l-118 125l-1 4q1 10 17 15l35 7l32 1
q13 1 22 -3q10 -4 16 -12l79 -119l10 -15q-1 -5 -13 -8l-25 -4l-20 -1l-19 1q-8 2 -15 9v1z" />
    <glyph glyph-name="iacute" unicode="&#xed;" horiz-adv-x="299" 
d="M153 627q42 2 51 -26q10 -29 8 -115v-335l3 -60q3 -21 12 -21q7 0 10 4l10 8l8 3l9 1q19 -2 34 -22q15 -19 16 -34q-1 -7 -29 -24q-28 -16 -64 -18q-62 0 -91 25q-29 24 -36 67q-8 43 -7 99v430q1 7 15 11l29 5zM172 819v-1v0q5 8 23 11q18 4 38 3q24 0 41 -5t18 -16
l-1 -6l-4 -6l-112 -118q-6 -7 -14 -9l-19 -1l-34 1q-18 2 -19 13l1 6l4 8l78 119v1z" />
    <glyph glyph-name="icircumflex" unicode="&#xee;" horiz-adv-x="287" 
d="M133 627q43 2 52 -26q9 -29 7 -115v-335q0 -39 4 -60q3 -21 12 -21q6 0 10 4l9 8l9 3l9 1q19 -2 34 -22q15 -19 16 -34q-2 -7 -29 -24q-28 -16 -64 -18q-63 0 -91 25q-29 24 -37 67q-7 43 -6 99v430q1 7 14 11l30 5zM201 682v-1v0l-75 69l-75 -69l-10 -8l-17 -2l-13 1
l-10 5q-28 15 -34 22q-7 7 8 21l117 107l14 10q8 4 20 4t20 -4l14 -10l116 -107q16 -14 9 -21q-6 -7 -34 -22l-10 -5l-13 -1l-17 2l-10 8v1z" />
    <glyph glyph-name="idieresis" unicode="&#xef;" horiz-adv-x="297" 
d="M133 627q43 2 52 -26q9 -29 7 -115v-335q0 -39 4 -60q3 -21 12 -21q6 0 10 4l9 8l9 3l9 1q19 -2 34 -22q15 -19 16 -34q-2 -7 -29 -24q-28 -16 -64 -18q-63 0 -91 25q-29 24 -37 67q-7 43 -6 99v430q1 7 14 11l30 5zM-31 734q2 32 24 51t51 20q25 0 43 -16q19 -16 19 -51
q-1 -30 -24 -48q-23 -19 -50 -19q-26 0 -44 15t-19 48zM168 735v-1v0q1 32 23 51q23 19 51 20q25 0 44 -16q18 -16 19 -51q-1 -30 -24 -48q-23 -19 -52 -19q-24 0 -42 15t-19 48v1z" />
    <glyph glyph-name="eth" unicode="&#xf0;" horiz-adv-x="614" 
d="M44 222q2 105 66 168q65 62 175 64l53 -4q27 -4 53 -15q-29 52 -62 90t-71 67l-55 -66q-13 -12 -30 -6q-17 5 -23 11q-19 14 -10 36q9 21 50 70l1 1l-26 15l-28 15q-17 10 -18 16q-2 6 3 11l16 27q12 17 28 16q15 -1 35 -10l48 -22l46 55q12 12 29 6q17 -5 22 -11
q18 -14 12 -33q-7 -19 -41 -58q116 -81 184 -192q68 -110 69 -220q0 -123 -69 -197q-69 -75 -197 -76q-118 1 -188 68q-70 66 -72 174zM178 216v-1v0q1 -69 34 -111q33 -41 93 -43q65 1 98 44q33 44 33 118q-2 78 -41 116t-93 38q-59 -1 -91 -46t-33 -116v1z" />
    <glyph glyph-name="ntilde" unicode="&#xf1;" horiz-adv-x="662" 
d="M197 383q11 48 36 104q24 56 69 97t118 43q64 -1 101 -30t52 -74t15 -94v-301q2 -86 -8 -114q-9 -28 -51 -26l-22 1l-29 5q-14 4 -15 11v409q0 54 -14 91q-14 38 -48 40q-28 -2 -62 -45q-35 -43 -67 -108q-33 -66 -54 -134t-21 -119v-11q1 -86 -8 -114t-51 -26l-22 1
l-30 5q-13 4 -14 11v605q1 7 14 10l30 5l22 2q42 2 51 -26t8 -114v-104zM477 672v-1v0q-29 0 -47 8l-32 16l-23 13q-12 6 -25 6q-7 0 -15 -7l-16 -25q-3 -6 -11 -9l-19 -2q-13 0 -30 5q-17 6 -18 15l1 6l3 9q16 38 45 56t65 18q27 0 45 -7q18 -6 32 -15l26 -14q12 -6 24 -7
q8 0 15 8q8 7 17 24q3 6 10 9l19 2q14 0 31 -5q16 -6 18 -14l-1 -5l-2 -5q-14 -42 -44 -61q-31 -19 -68 -19v1z" />
    <glyph glyph-name="ograve" unicode="&#xf2;" horiz-adv-x="586" 
d="M39 307q-1 81 23 154q23 72 79 118q55 46 152 48q96 -2 152 -48t79 -118q23 -73 23 -154t-23 -154q-23 -72 -79 -118t-152 -47q-97 1 -152 47q-56 46 -79 118q-24 73 -23 154zM293 545q-48 -1 -76 -36q-27 -34 -38 -88q-12 -54 -11 -115q-1 -60 11 -114q11 -54 38 -87
q28 -34 76 -35q48 1 75 35q27 33 39 87q11 54 11 114q0 61 -11 115q-12 54 -39 88q-27 35 -75 36zM265 682v-1v0l-119 125l-1 4q1 10 17 15l36 7l31 1q13 1 23 -3t16 -12l79 -119l9 -15q0 -5 -12 -8l-26 -4l-19 -1l-19 1q-9 2 -15 9v1z" />
    <glyph glyph-name="oacute" unicode="&#xf3;" horiz-adv-x="586" 
d="M39 307q-1 81 23 154q23 72 79 118q55 46 152 48q96 -2 152 -48t79 -118q23 -73 23 -154t-23 -154q-23 -72 -79 -118t-152 -47q-97 1 -152 47q-56 46 -79 118q-24 73 -23 154zM293 545q-48 -1 -76 -36q-27 -34 -38 -88q-12 -54 -11 -115q-1 -60 11 -114q11 -54 38 -87
q28 -34 76 -35q48 1 75 35q27 33 39 87q11 54 11 114q0 61 -11 115q-12 54 -39 88q-27 35 -75 36zM315 819v-1v0q6 8 23 11q18 4 39 3q23 0 40 -5t18 -16l-1 -6l-4 -6l-112 -118q-6 -7 -14 -9l-18 -1l-35 1q-17 2 -19 13l1 6l5 8l77 119v1z" />
    <glyph glyph-name="ocircumflex" unicode="&#xf4;" horiz-adv-x="586" 
d="M39 307q-1 81 23 154q23 72 79 118q55 46 152 48q96 -2 152 -48t79 -118q23 -73 23 -154t-23 -154q-23 -72 -79 -118t-152 -47q-97 1 -152 47q-56 46 -79 118q-24 73 -23 154zM293 545q-48 -1 -76 -36q-27 -34 -38 -88q-12 -54 -11 -115q-1 -60 11 -114q11 -54 38 -87
q28 -34 76 -35q48 1 75 35q27 33 39 87q11 54 11 114q0 61 -11 115q-12 54 -39 88q-27 35 -75 36zM364 682v-1v0l-75 69l-75 -69l-10 -8l-18 -2l-12 1l-10 5q-28 15 -34 22q-7 7 8 21l117 107l14 10q8 4 20 4t19 -4l15 -10l116 -107q16 -14 9 -21t-34 -22l-10 -5l-13 -1
l-17 2l-10 8v1z" />
    <glyph glyph-name="otilde" unicode="&#xf5;" horiz-adv-x="586" 
d="M39 307q-1 81 23 154q23 72 79 118q55 46 152 48q96 -2 152 -48t79 -118q23 -73 23 -154t-23 -154q-23 -72 -79 -118t-152 -47q-97 1 -152 47q-56 46 -79 118q-24 73 -23 154zM293 545q-48 -1 -76 -36q-27 -34 -38 -88q-12 -54 -11 -115q-1 -60 11 -114q11 -54 38 -87
q28 -34 76 -35q48 1 75 35q27 33 39 87q11 54 11 114q0 61 -11 115q-12 54 -39 88q-27 35 -75 36zM356 672v-1v0q-29 0 -46 8l-32 16l-24 13q-12 6 -25 6q-7 0 -15 -7l-15 -25q-4 -6 -12 -9l-19 -2q-13 0 -30 5q-17 6 -18 15l1 6l3 9q16 38 45 56t65 18q27 0 45 -7
q18 -6 32 -15l26 -14q12 -6 24 -7q8 0 16 8l16 24q3 6 10 9l19 2q14 0 31 -5q17 -6 18 -14l-1 -5l-2 -5q-13 -42 -44 -61t-68 -19v1z" />
    <glyph glyph-name="odieresis" unicode="&#xf6;" horiz-adv-x="586" 
d="M39 307q-1 81 23 154q23 72 79 118q55 46 152 48q96 -2 152 -48t79 -118q23 -73 23 -154t-23 -154q-23 -72 -79 -118t-152 -47q-97 1 -152 47q-56 46 -79 118q-24 73 -23 154zM293 545q-48 -1 -76 -36q-27 -34 -38 -88q-12 -54 -11 -115q-1 -60 11 -114q11 -54 38 -87
q28 -34 76 -35q48 1 75 35q27 33 39 87q11 54 11 114q0 61 -11 115q-12 54 -39 88q-27 35 -75 36zM132 734q1 32 24 51q22 19 51 20q25 0 43 -16t19 -51q-1 -30 -24 -48q-23 -19 -50 -19q-26 0 -44 15t-19 48zM331 735v-1v0q1 32 23 51t50 20q26 0 44 -16q19 -16 20 -51
q-1 -30 -25 -48q-23 -19 -51 -19q-24 0 -42 15t-19 48v1z" />
    <glyph glyph-name="divide" unicode="&#xf7;" horiz-adv-x="548" 
d="M198 53q1 32 24 51q22 19 50 20q26 0 44 -16q19 -16 20 -51q-2 -30 -25 -48q-23 -19 -51 -19q-25 0 -43 15t-19 48zM198 470q1 33 24 51q22 19 50 20q26 0 44 -16q19 -15 20 -51q-2 -30 -25 -49q-23 -18 -51 -18q-25 -1 -43 14q-18 16 -19 49zM411 237v-1v0h-362
q-17 2 -24 18q-6 16 -6 25q-1 24 22 30q22 6 86 5h361q18 -2 24 -18l6 -25q2 -23 -21 -30q-23 -6 -86 -5v1z" />
    <glyph glyph-name="oslash" unicode="&#xf8;" horiz-adv-x="586" 
d="M130 44q-50 47 -71 116q-21 70 -20 147q-1 81 23 154q23 72 79 118q55 46 152 48l32 -2l29 -5l26 66q8 14 24 19q15 5 30 5q20 0 40 -5q20 -6 22 -20l-5 -24l-8 -21l-27 -71q50 -46 71 -116q20 -69 20 -146q0 -81 -23 -154q-23 -72 -79 -118t-152 -47l-32 2l-29 4
l-26 -69q-8 -14 -30 -19q-22 -6 -36 -5q-23 -1 -36 4q-14 4 -14 19l6 31l12 31zM293 545q-48 -1 -76 -36q-27 -34 -38 -88q-12 -54 -11 -115l3 -67l11 -62l141 363l-15 3zM418 307v-1v0l-3 66l-11 61l-141 -359l14 -4h16q48 1 75 35q27 33 39 87q11 54 11 114v1z" />
    <glyph glyph-name="ugrave" unicode="&#xf9;" horiz-adv-x="665" 
d="M151 624l30 -5q14 -4 15 -11v-427q-1 -34 13 -66t45 -34q35 1 72 43q36 42 67 106t50 132q18 68 19 123v37q-1 62 10 84q12 22 48 21l22 -2l30 -5q14 -4 15 -11v-476l2 -67l4 -58q-1 -9 -16 -14l-33 -5l-26 -1q-26 -1 -41 10q-15 10 -15 42v156q-12 -45 -39 -90
q-28 -45 -73 -76t-111 -32q-62 1 -99 27t-53 68q-17 41 -16 88v304q-2 86 7 115q9 28 51 26zM295 682v-1v0l-119 125l-1 4q1 10 17 15l36 7l31 1q13 1 23 -3t16 -12l79 -119l9 -15q-1 -5 -13 -8l-25 -4l-19 -1l-19 1q-9 2 -15 9v1z" />
    <glyph glyph-name="uacute" unicode="&#xfa;" horiz-adv-x="665" 
d="M151 624l30 -5q14 -4 15 -11v-427q-1 -34 13 -66t45 -34q35 1 72 43q36 42 67 106t50 132q18 68 19 123v37q-1 62 10 84q12 22 48 21l22 -2l30 -5q14 -4 15 -11v-476l2 -67l4 -58q-1 -9 -16 -14l-33 -5l-26 -1q-26 -1 -41 10q-15 10 -15 42v156q-12 -45 -39 -90
q-28 -45 -73 -76t-111 -32q-62 1 -99 27t-53 68q-17 41 -16 88v304q-2 86 7 115q9 28 51 26zM345 819v-1v0q5 8 23 11q18 4 39 3q23 0 40 -5t18 -16l-1 -6l-4 -6l-112 -118q-6 -7 -14 -9l-19 -1l-34 1q-18 2 -19 13l1 6l4 8l78 119v1z" />
    <glyph glyph-name="ucircumflex" unicode="&#xfb;" horiz-adv-x="665" 
d="M151 624l30 -5q14 -4 15 -11v-427q-1 -34 13 -66t45 -34q35 1 72 43q36 42 67 106t50 132q18 68 19 123v37q-1 62 10 84q12 22 48 21l22 -2l30 -5q14 -4 15 -11v-476l2 -67l4 -58q-1 -9 -16 -14l-33 -5l-26 -1q-26 -1 -41 10q-15 10 -15 42v156q-12 -45 -39 -90
q-28 -45 -73 -76t-111 -32q-62 1 -99 27t-53 68q-17 41 -16 88v304q-2 86 7 115q9 28 51 26zM393 682v-1v0l-75 69l-74 -69l-10 -8l-18 -2l-12 1l-10 5q-28 15 -35 22q-6 7 9 21l117 107q6 7 14 10q7 4 19 4t20 -4q8 -3 14 -10l117 -107q15 -14 9 -21q-7 -7 -35 -22l-10 -5
l-12 -1l-18 2l-10 8v1z" />
    <glyph glyph-name="udieresis" unicode="&#xfc;" horiz-adv-x="665" 
d="M151 624l30 -5q14 -4 15 -11v-427q-1 -34 13 -66t45 -34q35 1 72 43q36 42 67 106t50 132q18 68 19 123v37q-1 62 10 84q12 22 48 21l22 -2l30 -5q14 -4 15 -11v-476l2 -67l4 -58q-1 -9 -16 -14l-33 -5l-26 -1q-26 -1 -41 10q-15 10 -15 42v156q-12 -45 -39 -90
q-28 -45 -73 -76t-111 -32q-62 1 -99 27t-53 68q-17 41 -16 88v304q-2 86 7 115q9 28 51 26zM162 734q1 32 23 51q23 19 52 20q24 0 43 -16q18 -16 19 -51q-1 -30 -24 -48q-23 -19 -51 -19q-25 0 -43 15t-19 48zM361 735v-1v0q1 32 23 51t50 20q26 0 44 -16q19 -16 20 -51
q-2 -30 -25 -48q-23 -19 -51 -19q-25 0 -43 15t-18 48v1z" />
    <glyph glyph-name="yacute" unicode="&#xfd;" horiz-adv-x="658" 
d="M542 624l30 -5q14 -4 15 -11v-525q0 -158 -69 -248t-218 -92q-61 -1 -104 8t-80 34q-14 11 -5 33q8 22 27 38q18 17 33 10q26 -16 58 -28q33 -12 65 -13q72 1 109 42q36 42 48 110q12 67 11 148v50q-41 -72 -98 -123q-58 -52 -125 -54q-62 1 -99 27t-53 68q-17 41 -16 88
v304q-2 86 7 115q9 28 51 26l22 -2l30 -5q14 -4 15 -11v-397q-1 -54 13 -92q15 -38 48 -39q32 2 67 46q35 45 67 112q31 67 51 136q19 68 20 117q-2 82 8 109q10 28 50 26zM349 819v-1v0q6 8 23 11q18 4 39 3q23 0 40 -5t18 -16l-1 -6l-4 -6l-112 -118q-6 -7 -14 -9l-19 -1
l-34 1q-17 2 -19 13l1 6l4 8l78 119v1z" />
    <glyph glyph-name="thorn" unicode="&#xfe;" horiz-adv-x="625" 
d="M199 -162q1 -86 -8 -114t-51 -26l-22 1l-30 5q-14 4 -16 10v1105q2 11 23 14l38 3q39 1 52 -17t12 -78v-261q33 63 84 104t120 43q101 -2 143 -57q43 -55 42 -137q-1 -71 -28 -148q-26 -78 -73 -145t-108 -109t-129 -43l-26 1l-24 3zM389 546v-1v0q-29 -2 -60 -40
q-31 -39 -59 -98q-29 -59 -48 -121t-24 -111q1 -54 16 -80q14 -26 45 -25q48 2 93 58q45 57 74 137q30 80 31 154q-1 61 -20 94q-19 32 -48 32v1z" />
    <glyph glyph-name="ydieresis" unicode="&#xff;" horiz-adv-x="658" 
d="M542 624l30 -5q14 -4 15 -11v-525q0 -158 -69 -248t-218 -92q-61 -1 -104 8t-80 34q-14 11 -5 33q8 22 27 38q18 17 33 10q26 -16 58 -28q33 -12 65 -13q72 1 109 42q36 42 48 110q12 67 11 148v50q-41 -72 -98 -123q-58 -52 -125 -54q-62 1 -99 27t-53 68q-17 41 -16 88
v304q-2 86 7 115q9 28 51 26l22 -2l30 -5q14 -4 15 -11v-397q-1 -54 13 -92q15 -38 48 -39q32 2 67 46q35 45 67 112q31 67 51 136q19 68 20 117q-2 82 8 109q10 28 50 26zM166 734q1 32 23 51q23 19 52 20q24 0 43 -16q18 -16 19 -51q-1 -30 -24 -48q-23 -19 -51 -19
q-25 0 -43 15t-19 48zM365 735v-1v0q1 32 23 51t50 20q26 0 44 -16q19 -16 20 -51q-2 -30 -25 -48q-23 -19 -51 -19q-25 0 -43 15t-18 48v1z" />
    <glyph glyph-name="OE" unicode="&#x152;" horiz-adv-x="997" 
d="M598 345v-261q28 -10 61 -12l63 -2q38 0 76 9l74 19l12 3l11 1q24 -1 40 -21q17 -19 17 -36q0 -4 -12 -9l-24 -12q-42 -21 -100 -29t-104 -7q-52 -1 -105 3q-52 5 -99 22q-28 -12 -62 -19q-34 -6 -74 -6q-116 2 -189 56q-72 54 -106 140t-34 183q0 99 34 186
q34 86 107 140t188 55q39 0 74 -7t63 -19q45 16 96 21q51 6 107 5q48 1 106 -7q59 -8 100 -29l23 -12l11 -9q0 -17 -17 -36q-16 -19 -40 -21q-13 0 -17 3q-40 17 -79 24q-39 6 -77 6l-63 -2q-33 -3 -61 -13v-225h271l23 -2q11 -2 11 -13q-6 -43 -16 -55q-10 -13 -45 -12
h-244zM372 668v-1v0q-71 -2 -114 -45q-42 -43 -61 -111t-19 -144t19 -143q19 -68 61 -110q43 -43 114 -44q31 0 56 9t41 23v531q-16 15 -41 24t-56 10v1z" />
    <glyph glyph-name="oe" unicode="&#x153;" horiz-adv-x="944" 
d="M864 65l5 -18q-1 -16 -34 -30q-32 -13 -77 -21t-83 -8q-68 0 -115 23t-77 63q-29 -40 -76 -63t-114 -23q-97 1 -152 47q-56 46 -79 118q-24 73 -23 154q-1 81 23 154q23 72 79 118q55 46 152 48q69 -1 117 -26q48 -24 77 -66q32 41 78 66q47 25 111 26q57 -1 107 -19
q50 -19 81 -55q32 -36 33 -87q-1 -68 -40 -110t-100 -61q-60 -20 -127 -19l-41 1l-41 4q2 -55 14 -103q13 -48 41 -78q27 -30 72 -30q26 0 50 8l41 15l22 9l25 3q29 0 40 -17zM293 545q-48 -1 -76 -36q-27 -34 -38 -88q-12 -54 -11 -115q-1 -60 11 -114q11 -54 38 -87
q28 -34 76 -35q48 1 75 35q27 35 39 91q11 57 11 125q-1 57 -13 108t-39 83t-73 33zM678 546v-1v0q-60 -1 -87 -50q-28 -48 -39 -128l40 -7l35 -3q71 1 106 30q34 29 34 78q-1 34 -27 56q-26 23 -62 24v1z" />
    <glyph glyph-name="Scaron" unicode="&#x160;" horiz-adv-x="569" 
d="M109 111q23 -14 59 -27q36 -14 91 -14q50 0 87 29q36 29 38 82q-1 44 -35 72q-33 28 -82 54q-53 31 -106 69q-53 39 -89 86q-36 48 -37 105q1 52 33 92q32 41 85 65t116 24q61 1 105 -9q43 -9 81 -33q17 -13 10 -36q-6 -22 -24 -37q-18 -16 -37 -6l-13 7q-22 13 -50 22
q-29 10 -72 11q-33 -1 -65 -23q-32 -23 -34 -65q0 -52 41 -90q41 -37 118 -82q47 -29 91 -62q43 -33 70 -73q28 -40 29 -90q-1 -53 -37 -97t-96 -70q-61 -27 -135 -27q-78 0 -121 10t-79 33q-15 10 -6 32q8 23 28 39q19 16 36 9zM208 949v-1v0l76 -69l75 69l10 8l18 2l12 -1
l11 -5l19 -10l16 -10l6 -5l-4 -6l-11 -12l-118 -106l-15 -11q-8 -4 -19 -3q-12 -1 -20 3q-8 3 -15 11l-116 106l-13 12l-3 6q0 3 20 15l21 10l10 5l12 1l18 -2l10 -8v1z" />
    <glyph glyph-name="scaron" unicode="&#x161;" horiz-adv-x="486" 
d="M289 536q-24 9 -51 9q-36 -1 -54 -18q-17 -16 -17 -42q1 -42 34 -72q34 -29 86 -58q41 -23 78 -49t62 -58q24 -32 25 -72q-1 -58 -34 -100t-86 -65t-115 -23q-42 -1 -90 7q-47 8 -81 27q-10 6 -16 14q-5 7 -5 14q1 20 18 37t40 18l11 -1l8 -3q25 -14 55 -23q31 -8 63 -8
q53 1 78 29t25 63q-2 39 -36 63q-33 24 -72 44q-77 44 -126 92t-51 104q1 83 55 123q54 39 144 39q41 0 82 -8q41 -9 80 -32q12 -7 17 -14q5 -6 5 -13q-1 -19 -18 -35q-16 -16 -39 -17l-12 1l-8 2zM162 832v-1v0l76 -69l75 69l10 8l18 3l12 -2l11 -4l19 -11l16 -10l5 -5
l-3 -5l-11 -12l-118 -107l-15 -11l-19 -3l-21 3l-14 11l-116 107l-13 12l-3 5q0 3 20 15l21 11l10 4l12 2q13 0 18 -3l10 -8v1z" />
    <glyph glyph-name="Ydieresis" unicode="&#x178;" horiz-adv-x="571" 
d="M266 -11l-30 5q-14 4 -15 11v302l-4 23q-3 13 -8 20l-104 175q-49 87 -93 176q-10 26 4 37t35 10q27 1 47 -5q20 -5 31 -23l86 -159q39 -72 71 -120q33 48 72 120l86 163q8 16 30 20q21 5 46 4q23 1 36 -10q14 -10 3 -37q-38 -79 -87 -166t-111 -185l-7 -19l-4 -24v-179
q2 -86 -10 -114q-11 -28 -52 -26zM128 851q1 32 24 51q22 19 51 20q24 0 43 -16q18 -16 19 -51q-1 -30 -24 -49q-23 -18 -51 -18q-25 -1 -43 14t-19 49zM327 852v-1v0q1 32 23 51t50 20q26 0 44 -16q19 -16 20 -51q-2 -30 -25 -49q-23 -18 -51 -18q-25 -1 -42 14
q-18 15 -19 49v1z" />
    <glyph glyph-name="Zcaron" unicode="&#x17d;" horiz-adv-x="591" 
d="M67 0q-12 1 -23 19t-17 40t0 36l416 556h-268q-67 0 -90 7q-24 8 -23 32q0 9 7 27q6 17 24 19h425q12 -1 25 -20q13 -18 20 -41t1 -37l-407 -553h381q17 -2 23 -20q7 -18 6 -27q2 -24 -21 -31q-24 -8 -90 -7h-389zM234 949v-1v0l76 -69l76 69l10 8l18 2l12 -1l10 -5
l20 -10l15 -10l6 -5l-3 -6l-11 -12l-118 -106q-8 -8 -16 -11q-8 -4 -19 -3q-12 -1 -20 3q-8 3 -15 11l-115 106l-13 12l-4 6l21 15l20 10l10 5l13 1l18 -2l9 -8v1z" />
    <glyph glyph-name="zcaron" unicode="&#x17e;" horiz-adv-x="529" 
d="M62 0q-11 1 -21 18t-15 38q-4 22 2 36l329 441h-194q-65 -1 -87 6q-23 8 -22 31l6 25q7 17 25 19h357q13 -1 24 -19q12 -17 17 -39q6 -22 0 -36l-320 -438h313q17 -2 23 -20l6 -25q1 -23 -21 -30q-23 -8 -87 -7h-335zM202 832v-1v0l76 -69l75 69l10 8q5 3 18 3l12 -2
l10 -4l20 -11l16 -10l5 -5l-3 -5l-11 -12l-118 -107l-16 -11l-18 -3l-21 3l-14 11l-116 107l-13 12l-3 5q0 3 20 15l21 11l10 4l12 2q13 0 18 -3l10 -8v1z" />
    <glyph glyph-name="florin" unicode="&#x192;" horiz-adv-x="449" 
d="M159 -256v-1v0l-23 1l-29 6q-14 3 -15 10v773h-81q-18 2 -24 19q-7 17 -6 26q-2 23 21 30q22 7 86 6h4v9q0 103 54 167t160 66q46 0 84 -12q39 -11 41 -29q-1 -14 -19 -34q-17 -21 -34 -23l-27 2l-17 6l-20 6l-22 2q-31 -1 -47 -28q-17 -28 -22 -63q-6 -35 -6 -61v-8h103
q18 -2 24 -19l6 -25q2 -23 -21 -31q-23 -7 -86 -6h-26v-650q2 -86 -7 -114t-51 -26v1z" />
    <glyph glyph-name="circumflex" unicode="&#x2c6;" horiz-adv-x="252" 
d="M201 682v-1v0l-75 69l-75 -69l-10 -8l-17 -2l-13 1l-10 5q-28 15 -34 22q-7 7 8 21l117 107l14 10q8 4 20 4t20 -4l14 -10l116 -107q16 -14 9 -21q-6 -7 -34 -22l-10 -5l-13 -1l-17 2l-10 8v1z" />
    <glyph glyph-name="tilde" unicode="&#x2dc;" horiz-adv-x="259" 
d="M190 672v-1v0q-29 0 -46 8l-32 16l-24 13q-12 6 -25 6q-7 0 -14 -7q-8 -8 -16 -25q-4 -6 -12 -9l-19 -2q-13 0 -30 5q-17 6 -18 15l1 6l3 9q16 38 45 56t66 18q26 0 44 -7q18 -6 32 -15l26 -14q12 -6 25 -7q7 0 15 8l16 24q3 6 10 9l19 2q14 0 31 -5q17 -6 18 -14l-1 -5
l-2 -5q-13 -42 -44 -61t-68 -19v1z" />
    <glyph glyph-name="endash" unicode="&#x2013;" horiz-adv-x="499" 
d="M391 262v-1v0h-360q-18 2 -25 19l-6 24q-1 24 21 31q23 6 87 5h361q17 -2 24 -18l6 -25q1 -24 -21 -30q-23 -7 -87 -6v1z" />
    <glyph glyph-name="emdash" unicode="&#x2014;" horiz-adv-x="903" 
d="M796 262v-1v0h-766q-18 2 -24 19l-6 24q-1 24 21 31q23 6 87 5h765q18 -2 24 -18q7 -17 6 -25q2 -24 -21 -30q-23 -7 -86 -6v1z" />
    <glyph glyph-name="quoteleft" unicode="&#x2018;" horiz-adv-x="259" 
d="M199 685v-1v0q-1 -25 -21 -46t-54 -23q-25 0 -44 16t-20 51q1 24 17 56q15 32 39 56q25 24 52 25q11 0 20 -5q10 -5 8 -13l-8 -28l-2 -21l2 -17l2 -12l6 -19l3 -20v1z" />
    <glyph glyph-name="quoteright" unicode="&#x2019;" horiz-adv-x="259" 
d="M60 753v-1v0q1 24 21 45q20 22 54 23q25 0 44 -15q19 -16 20 -51q-1 -25 -16 -57q-16 -32 -40 -55q-25 -24 -52 -25q-11 0 -20 5q-10 4 -7 13l7 28l2 21l-2 16l-2 11l-6 19l-3 22v1z" />
    <glyph glyph-name="quotesinglbase" unicode="&#x201a;" horiz-adv-x="259" 
d="M60 56v-1v0q1 25 21 46q20 22 54 23q25 0 44 -16t20 -51q-1 -24 -16 -56q-16 -31 -40 -55q-25 -25 -52 -26q-11 0 -20 5q-10 5 -7 14l7 28l2 21l-2 16l-2 11l-6 19l-3 21v1z" />
    <glyph glyph-name="quotedblleft" unicode="&#x201c;" horiz-adv-x="387" 
d="M189 685q0 -25 -20 -46t-54 -22q-26 -1 -44 15q-19 16 -20 51q1 24 16 56q16 32 40 56q25 24 52 25q11 0 20 -5q10 -5 7 -13l-7 -28l-2 -21l1 -17l3 -12l5 -19zM336 686v-1v0q-1 -25 -20 -46q-20 -21 -55 -22q-25 -1 -43 15t-19 51q0 24 16 56q15 32 40 56q24 24 51 25
q11 0 20 -5t7 -13l-8 -28l-1 -21l1 -17l3 -12l5 -19l3 -20v1z" />
    <glyph glyph-name="quotedblright" unicode="&#x201d;" horiz-adv-x="387" 
d="M54 705l5 19l3 12l2 17l-2 21l-8 28q-2 8 7 13q10 5 20 5q28 -1 52 -25q25 -24 40 -56q16 -32 16 -56q-1 -35 -19 -51q-19 -16 -44 -15q-35 1 -55 22q-19 21 -20 46zM199 686v-1v0l2 20l5 19l3 12l1 17l-2 21l-7 28q-2 8 7 13q10 5 20 5q27 -1 52 -25q24 -24 40 -56
q15 -32 16 -56q-1 -35 -20 -51q-18 -16 -44 -15q-34 1 -53 22q-20 21 -20 46v1z" />
    <glyph glyph-name="quotedblbase" unicode="&#x201e;" horiz-adv-x="387" 
d="M51 55q1 25 20 46q20 22 55 23q25 0 44 -16q18 -16 19 -51q0 -24 -16 -56q-15 -31 -40 -55q-24 -25 -52 -26q-10 0 -20 5q-9 5 -7 14l8 28l2 21l-2 16l-3 11l-5 19zM199 56v-1v0q0 25 20 46q19 22 53 23q26 0 44 -16q19 -16 20 -51q-1 -24 -16 -56q-16 -31 -40 -55
q-24 -25 -52 -26q-10 0 -20 5q-9 5 -7 14l7 28l2 21l-1 16l-3 11l-5 19l-2 21v1z" />
    <glyph glyph-name="dagger" unicode="&#x2020;" horiz-adv-x="641" 
d="M385 38v-1v0q1 -70 -10 -94t-51 -23l-22 2l-31 5q-14 4 -15 12v536h-180q-20 2 -28 19q-7 17 -7 26q-2 30 26 36q27 6 106 5h83v184q1 8 15 12l31 5l22 2q40 2 51 -23q11 -24 10 -95v-85h182q20 -2 27 -21t6 -28q1 -27 -19 -33q-21 -5 -81 -4h-115v-438v1z" />
    <glyph glyph-name="daggerdbl" unicode="&#x2021;" horiz-adv-x="657" 
d="M392 38v-1v0q2 -70 -9 -94t-51 -23l-22 2l-31 5q-14 4 -15 12v386h-181q-20 2 -27 18q-7 17 -7 26q-2 29 26 35q27 7 106 6h83v65h-181q-20 2 -27 19t-7 26q-2 30 26 36q27 6 106 5h83v184q1 8 15 12l31 5l22 2q40 2 51 -23q11 -24 9 -95v-85h182q21 -2 28 -21t6 -28
q2 -27 -19 -33q-21 -5 -81 -4h-116v-65h182q21 -3 28 -22q7 -18 6 -28q2 -26 -19 -31q-21 -6 -81 -4h-116v-288v1z" />
    <glyph glyph-name="bullet" unicode="&#x2022;" horiz-adv-x="480" 
d="M74 355v-1v0q1 61 27 106q27 45 68 70q42 25 87 25q60 1 104 -44t47 -144q-2 -58 -29 -101q-28 -43 -71 -67q-42 -24 -87 -25q-60 -1 -102 42t-44 138v1z" />
    <glyph glyph-name="ellipsis" unicode="&#x2026;" horiz-adv-x="1201" 
d="M121 53q1 32 23 51q23 19 52 20q24 0 43 -16t20 -51q-1 -30 -24 -48q-23 -19 -52 -19q-24 0 -43 15q-18 15 -19 48zM532 53q1 32 23 51q23 19 51 20q26 0 44 -16q19 -16 20 -51q-2 -30 -25 -48q-23 -19 -51 -19q-25 0 -43 15q-19 15 -19 48zM943 54v-1v0q1 32 24 51
q22 19 51 20q25 0 43 -16t19 -51q-1 -30 -24 -48q-23 -19 -50 -19q-26 0 -44 15t-19 48v1z" />
    <glyph glyph-name="perthousand" unicode="&#x2030;" horiz-adv-x="1303" 
d="M662 371q76 -2 131 -52q54 -49 57 -134q-1 -84 -51 -134q-49 -50 -137 -51q-89 1 -138 51q-50 50 -51 134q3 85 57 134q55 50 132 52zM725 185q-1 53 -19 79q-19 25 -44 25q-26 0 -45 -25q-18 -26 -19 -79q1 -54 19 -79q19 -24 45 -24q25 0 44 24q18 25 19 79zM223 746
q78 -1 132 -51q54 -49 57 -134q-1 -84 -51 -134q-49 -50 -138 -51q-88 1 -138 51q-49 50 -50 134q2 85 57 134q54 50 131 51zM589 724q6 10 18 14l26 3l25 -3q16 -3 30 -10q13 -7 13 -18q0 -10 -8 -26l-17 -27l-8 -9l3 1l-389 -639q-8 -10 -25 -13l-32 -4q-26 0 -41 7
q-16 7 -16 18q2 11 12 31l21 36zM287 561q-1 53 -19 78q-19 26 -45 26q-25 0 -44 -26q-18 -25 -19 -78q1 -54 19 -79q19 -25 44 -24q26 -1 45 24q18 25 19 79zM1076 371q77 -2 132 -52q54 -49 57 -134q-1 -84 -51 -134q-49 -50 -138 -51q-88 1 -138 51q-49 50 -50 134
q2 85 57 134q54 50 131 52zM1140 186v-1v0q-1 53 -20 79q-18 25 -44 25q-25 0 -44 -25q-18 -26 -19 -79q1 -54 19 -79q19 -24 44 -24q26 0 44 24q19 25 20 79v1z" />
    <glyph glyph-name="guilsinglleft" unicode="&#x2039;" horiz-adv-x="300" 
d="M190 103v-1v0l-155 194l155 193q15 19 24 16q9 -4 35 -27l6 -5q8 -6 9 -12q2 -6 -4 -14l-116 -151l116 -152q6 -7 4 -13q-1 -6 -9 -12l-6 -5q-26 -24 -35 -27t-24 15v1z" />
    <glyph glyph-name="guilsinglright" unicode="&#x203a;" horiz-adv-x="299" 
d="M264 297v-1v0l-155 -194l-13 -12l-10 -5q-6 0 -15 8l-27 26l-7 8l-2 7l4 10l116 152l-116 152l-4 10l2 7l7 8l27 26q9 8 15 8q12 -3 45 -43l72 -89l61 -79v1z" />
    <glyph glyph-name="Euro" unicode="&#x20ac;" horiz-adv-x="670" 
d="M328 234v-1v0h-110q19 -69 60 -115q41 -47 108 -48q33 0 63 8t58 21l6 3l20 10l24 5q23 -2 41 -20q18 -19 19 -36q0 -4 -15 -16q-51 -34 -103 -46q-53 -12 -112 -11q-90 1 -151 33q-62 33 -99 88q-37 56 -54 124h-78q-17 1 -24 18l-6 25q-1 23 19 29q20 7 75 7l-2 24v26
h-62q-17 2 -24 18l-6 24q-1 23 20 30q20 7 76 7q9 80 44 149q36 69 102 112q67 43 170 44q59 1 112 -11q52 -11 103 -46q15 -10 15 -16q-1 -17 -19 -36q-18 -18 -41 -19q-16 0 -25 4l-19 9l-6 4q-28 13 -58 21t-63 9q-56 -1 -93 -33q-37 -31 -58 -81q-21 -51 -28 -110h199
q17 -2 24 -19q6 -16 5 -24q2 -24 -21 -31q-22 -6 -86 -5h-126v-25l2 -25h202q17 -2 24 -19q6 -16 5 -24q2 -24 -21 -31q-22 -6 -86 -5v1z" />
    <glyph glyph-name="trademark" unicode="&#x2122;" horiz-adv-x="887" 
d="M527 374l-30 110q-13 47 -30 90l-28 -113q-13 -64 -23 -135q-5 -25 -19 -30q-15 -5 -36 -4q-19 0 -27 9q-8 8 -7 25q8 92 33 193q25 100 70 206q5 10 14 15q9 4 20 4t20 -5q10 -5 15 -14q24 -55 44 -112q21 -56 37 -110l38 110l44 112q5 9 14 14q10 5 20 5q12 0 21 -4
q9 -5 13 -15q44 -106 69 -207q25 -100 35 -192q1 -17 -8 -25q-9 -9 -27 -9q-20 -1 -35 4q-14 5 -19 30q-11 73 -25 136l-28 113l-30 -96l-30 -113l-15 -51q-3 -10 -13 -17q-10 -6 -24 -6t-24 6q-10 7 -13 17zM172 293v-1v0l-27 4q-19 4 -21 16v360h-92q-18 1 -24 14l-6 21
q-1 24 17 29t68 4h224q18 -2 23 -17l6 -21q1 -22 -13 -27q-14 -4 -55 -3h-55v-290q1 -55 -7 -73q-8 -19 -38 -17v1z" />
    </font>
</defs>
</svg>
